<?xml version="1.0" encoding="UTF-8"?>
<svg version="1.1" xmlns="http://www.w3.org/2000/svg" width="500" height="500">
<path d="M0 0 C9.61036024 8.0486767 15.24154689 18.6764292 16.41015625 31.12109375 C16.84258886 42.87197994 13.32050915 53.9970953 5.37109375 62.75 C-0.72491021 68.46423401 -8.34463577 73.0814844 -16.8125 73.75 C-17.10451955 77.17187017 -17.21779819 78.70092061 -15.8125 81.75 C-11.87393104 84.72114495 -7.42232903 86.62307294 -2.9375 88.625 C-1.15475212 89.45851799 0.62798177 90.29207644 2.40853882 91.13026428 C3.65166257 91.71460589 4.8963699 92.29558824 6.14248657 92.8735199 C12.06628344 95.63733356 17.83126343 98.6737138 23.60302734 101.7396698 C29.80835908 105.03336662 36.04564803 108.2588047 42.3046875 111.44921875 C43.25361877 111.9329747 44.20255005 112.41673065 45.18023682 112.91514587 C47.13541099 113.91119829 49.09077654 114.90687513 51.04632568 115.90219116 C56.24078542 118.54630225 61.43299141 121.19482976 66.625 123.84375 C68.14926102 124.62137947 68.14926102 124.62137947 69.70431519 125.41471863 C78.6124162 129.96190264 87.49830283 134.5504475 96.37597656 139.15673828 C105.94035081 144.11527803 115.52809455 149.02740414 125.11923218 153.93392944 C127.78566519 155.29876439 130.4512178 156.6653024 133.11645508 158.0324707 C134.84975062 158.92142866 136.58306744 159.81034515 138.31640625 160.69921875 C139.16133133 161.13250992 140.00625641 161.56580109 140.87678528 162.01222229 C145.4310204 164.34540862 149.99142686 166.66548494 154.56201172 168.96647644 C156.46759872 169.92691892 158.37071644 170.89206472 160.27294922 171.85913086 C162.50034375 172.9903445 164.73208528 174.11306346 166.96923828 175.22485352 C175.36712666 179.51209487 183.09470322 184.20263408 186.55859375 193.3671875 C188.54991833 200.91195765 187.43458451 206.69082642 183.69921875 213.4765625 C181.5359961 216.72978105 179.11144278 219.16605057 176.1875 221.75 C176.97511719 221.99492187 177.76273437 222.23984375 178.57421875 222.4921875 C192.21951608 227.17518895 202.90293393 235.07519945 210.1875 247.75 C216.50132812 260.66249058 218.62749138 274.2621121 214.15234375 288.203125 C208.55043326 302.99035431 198.78010887 313.22501194 184.43359375 320.0625 C174.98380052 323.80390285 165.10927322 324.92473585 155.015625 324.77734375 C154.31541733 324.77204651 153.61520966 324.76674927 152.89378357 324.7612915 C150.01111954 324.73818727 147.13226438 324.71442464 144.25146484 324.6027832 C135.20104953 324.154832 135.20104953 324.154832 127.36328125 328.11401367 C124.99459495 330.96630829 124.99459495 330.96630829 123.12207031 333.94775391 C118.06054902 341.27942243 109.39017785 345.73392435 101.1875 348.75 C100.1705529 349.14938577 100.1705529 349.14938577 99.13306141 349.55683994 C88.98539214 352.93940749 78.24045382 352.17787827 67.68041992 352.15405273 C65.39611986 352.15976112 63.11182265 352.16672718 60.82752991 352.17485046 C54.64557889 352.19274649 48.4637701 352.19161996 42.28180099 352.18590808 C37.11059025 352.18281067 31.93940661 352.18891493 26.76819974 352.19494683 C13.86559763 352.20978037 0.96308423 352.20618852 -11.93951633 352.19408352 C-23.1165136 352.18415699 -34.2933452 352.19708602 -45.47031692 352.22101771 C-56.97654183 352.24546668 -68.48267093 352.25460351 -79.98892325 352.24836498 C-86.43688457 352.2450027 -92.88470909 352.24736196 -99.33265114 352.26461601 C-105.39930375 352.28014211 -111.46564144 352.27606663 -117.53228188 352.25731087 C-119.75012657 352.25364048 -121.96799489 352.25668784 -124.18581772 352.26719666 C-145.49542258 352.36040675 -162.86469886 348.78703055 -178.90625 333.79296875 C-187.02781874 325.37465038 -191.64547303 315.14384673 -193.8125 303.75 C-195.66101563 303.60304688 -195.66101563 303.60304688 -197.546875 303.453125 C-211.1612192 302.26843047 -224.95308217 300.98481595 -234.375 289.9140625 C-238.79895739 283.95680169 -239.56397625 278.97490741 -238.8125 271.75 C-237.00569463 265.55679364 -233.19362024 261.19105791 -227.8125 257.75 C-219.6865614 253.71922539 -211.88531295 252.65005643 -202.9375 252.1875 C-202.15375 252.14431641 -201.37 252.10113281 -200.5625 252.05664062 C-198.64599351 251.95146649 -196.72926667 251.85032075 -194.8125 251.75 C-195.16570312 251.24879639 -195.51890625 250.74759277 -195.8828125 250.23120117 C-200.84825555 243.06117168 -203.05513651 235.4593735 -202.8125 226.75 C-203.70710938 226.73582031 -204.60171875 226.72164062 -205.5234375 226.70703125 C-215.83500705 226.3002849 -223.45805371 224.61096894 -230.75 217 C-235.20673902 211.37376209 -237.1795846 205.88028826 -236.75 198.6875 C-235.47812528 190.21707659 -232.25840982 185.67798904 -225.49707031 180.56762695 C-220.73601937 177.34408892 -215.61506286 174.91493599 -210.4375 172.4375 C-202.0105834 168.34934901 -193.68234571 164.13023536 -185.40515137 159.74862671 C-176.58499795 155.08608956 -167.69930023 150.55444114 -158.80981445 146.02587891 C-153.84307166 143.49543638 -148.87847981 140.96078237 -143.9140625 138.42578125 C-142.93967224 137.92825348 -141.96528198 137.43072571 -140.96136475 136.91812134 C-133.39838473 133.05423398 -125.85056751 129.16225368 -118.3125 125.25 C-108.89133568 120.36105532 -99.45177211 115.50947597 -89.99603271 110.68771362 C-85.05450964 108.16763366 -80.11743844 105.63966552 -75.19042969 103.09130859 C-67.00494283 98.86614141 -58.84776464 94.67724973 -50.40625 90.984375 C-40.13380139 87.10358548 -40.13380139 87.10358548 -32.76025391 79.63134766 C-31.77863223 75.76964633 -31.81130405 72.32914228 -32.34765625 68.40234375 C-32.8125 64.75 -32.8125 64.75 -32.12109375 62.37890625 C-29.44598159 59.04899052 -26.1208828 58.50831451 -22.0625 57.875 C-13.92115277 56.29462083 -8.7255774 53.72670117 -4 46.75390625 C-0.35256593 40.59886125 0.1030797 34.34328641 -1.27734375 27.41796875 C-3.32303623 20.31251619 -7.06853473 15.03523497 -13.5625 11.375 C-20.11324595 8.51060538 -26.22666147 7.85600848 -33 10.3125 C-38.94294111 13.01724013 -44.27435195 16.54690274 -46.8125 22.75 C-47.35514183 25.29438724 -47.75419636 27.83959298 -48.15234375 30.41015625 C-48.90281594 33.07011388 -49.62815463 34.08968998 -51.8125 35.75 C-55.75003839 36.84376066 -57.93725264 37.1038234 -61.75 35.5625 C-64.57649162 31.70819325 -64.63110542 28.89173603 -64.41796875 24.1796875 C-62.74393227 14.69708084 -57.74106368 6.34297833 -50.19921875 0.36328125 C-34.5826786 -10.19257977 -15.72746819 -11.50021881 0 0 Z M-31.02734375 98.2421875 C-32.64866211 99.05429688 -32.64866211 99.05429688 -34.30273438 99.8828125 C-35.44033203 100.45773438 -36.57792969 101.03265625 -37.75 101.625 C-38.82185547 102.16125 -39.89371094 102.6975 -40.99804688 103.25 C-47.63355916 106.58520781 -54.2192695 110.00642472 -60.78515625 113.4765625 C-70.58564279 118.654769 -80.45069 123.7021103 -90.32855225 128.73080444 C-95.50432065 131.36590566 -100.67788449 134.00532881 -105.8515625 136.64453125 C-106.88121124 137.16968826 -107.91085999 137.69484528 -108.97171021 138.23591614 C-117.88665413 142.78435419 -126.79006203 147.35492992 -135.6875 151.9375 C-145.77584642 157.13344007 -155.86949125 162.31871634 -165.97257996 167.48594666 C-172.94339792 171.05125948 -179.91033285 174.62409503 -186.87605286 178.19935608 C-191.12066069 180.37621409 -195.3704482 182.54195352 -199.63058472 184.68826294 C-202.29922797 186.03462605 -204.96138792 187.39371705 -207.625 188.75 C-208.53088867 189.19972168 -209.43677734 189.64944336 -210.37011719 190.11279297 C-214.82938675 192.39903093 -218.14211922 194.32604491 -220.8125 198.75 C-220.94576378 201.94833076 -220.67900175 203.7880799 -218.5 206.20703125 C-214.25094136 209.89308962 -211.11435311 210.8837903 -205.625 210.8125 C-204.72394531 210.80347656 -203.82289063 210.79445313 -202.89453125 210.78515625 C-202.20746094 210.77355469 -201.52039063 210.76195312 -200.8125 210.75 C-200.42578125 210.01394531 -200.0390625 209.27789062 -199.640625 208.51953125 C-199.11984375 207.54371094 -198.5990625 206.56789063 -198.0625 205.5625 C-197.55203125 204.59957031 -197.0415625 203.63664062 -196.515625 202.64453125 C-193.16728865 196.95389539 -189.96892827 193.86502354 -184 191.0625 C-182.81792969 190.48113281 -181.63585937 189.89976562 -180.41796875 189.30078125 C-172.98235634 186.10258176 -166.62155912 185.39652203 -158.625 185.4375 C-157.09286865 185.43834595 -157.09286865 185.43834595 -155.52978516 185.43920898 C-149.00291458 185.51875424 -143.31792655 186.07109274 -137.1171875 188.19140625 C-134.26749908 188.88209344 -132.58471926 188.69065515 -129.8125 187.75 C-128.07074661 186.2008136 -128.07074661 186.2008136 -126.625 184.1875 C-121.374816 177.83500464 -115.18543522 172.95986485 -107.9375 169.0625 C-103.41170223 166.4823723 -100.43320299 163.31792714 -97.0625 159.4375 C-87.35618566 148.41321813 -74.22436709 139.96132502 -59.29589844 138.50439453 C-50.72641935 138.00297222 -42.43090533 137.95762679 -34.1875 140.5625 C-29.68643192 141.93516615 -27.50922318 141.63812512 -23.25 139.625 C-22.35667969 139.14289063 -21.46335938 138.66078125 -20.54296875 138.1640625 C-5.53983332 130.39419837 14.26798099 131.01471384 30.03515625 135.90234375 C48.12930926 141.93372809 61.58507643 153.23136138 71.1875 169.75 C71.73277344 169.62882812 72.27804687 169.50765625 72.83984375 169.3828125 C75.2890625 168.83854167 77.73828125 168.29427083 80.1875 167.75 C80.82051025 167.58097168 81.45352051 167.41194336 82.10571289 167.23779297 C88.37297 165.65251662 94.30851029 165.51416034 100.75 165.625 C102.26303711 165.63853516 102.26303711 165.63853516 103.80664062 165.65234375 C106.26718457 165.67566644 108.72720896 165.70839237 111.1875 165.75 C108.59930169 163.72882739 106.05308532 162.05313294 103.1262207 160.56787109 C101.93308006 159.95878906 101.93308006 159.95878906 100.71583557 159.33740234 C99.85699265 158.90379395 98.99814972 158.47018555 98.11328125 158.0234375 C97.21016708 157.56356445 96.30705292 157.10369141 95.37657166 156.62988281 C92.41942008 155.12487447 89.45968431 153.62502047 86.5 152.125 C83.40187877 150.54940407 80.30446345 148.97242615 77.20706177 147.39541626 C75.13150071 146.33880292 73.05571473 145.2826313 70.97970581 144.22689819 C62.4504754 139.88876762 53.93975605 135.51569921 45.4375 131.125 C33.67084664 125.05337114 21.89392788 119.00193648 10.10998535 112.96392822 C8.31438668 112.0438492 6.51889175 111.12356765 4.72351074 110.20306396 C-0.08883549 107.73596068 -4.90314606 105.27279232 -9.72125244 102.81695557 C-11.07185729 102.12787629 -12.42180044 101.43749782 -13.77093506 100.74554443 C-15.47427119 99.87217113 -17.18038517 99.00422128 -18.88671875 98.13671875 C-19.80412842 97.66838623 -20.72153809 97.20005371 -21.66674805 96.7175293 C-25.53279664 94.97431044 -27.38432217 96.41286301 -31.02734375 98.2421875 Z M142.1875 181.75 C142.55101562 182.22308594 142.91453125 182.69617188 143.2890625 183.18359375 C144.94212128 185.35800184 146.56936191 187.54947963 148.1875 189.75 C148.70183594 190.44738281 149.21617187 191.14476562 149.74609375 191.86328125 C153.90699226 197.77499939 156.61136651 204.01329693 159.1875 210.75 C165.14592987 209.18857745 165.14592987 209.18857745 170.25 205.9375 C171.55200609 202.89948579 171.72237984 201.02613904 171.1875 197.75 C166.93183709 192.34195076 161.09258241 189.88349369 155 186.9375 C153.4850293 186.18436523 153.4850293 186.18436523 151.93945312 185.41601562 C147.27032515 182.80913089 147.27032515 182.80913089 142.1875 181.75 Z " fill="#85A2BE" transform="translate(267.8125,66.25)"/>
<path d="M0 0 C9.61036024 8.0486767 15.24154689 18.6764292 16.41015625 31.12109375 C16.84258886 42.87197994 13.32050915 53.9970953 5.37109375 62.75 C-0.72491021 68.46423401 -8.34463577 73.0814844 -16.8125 73.75 C-17.10451955 77.17187017 -17.21779819 78.70092061 -15.8125 81.75 C-11.87393104 84.72114495 -7.42232903 86.62307294 -2.9375 88.625 C-1.15475212 89.45851799 0.62798177 90.29207644 2.40853882 91.13026428 C3.65166257 91.71460589 4.8963699 92.29558824 6.14248657 92.8735199 C12.06628344 95.63733356 17.83126343 98.6737138 23.60302734 101.7396698 C29.80835908 105.03336662 36.04564803 108.2588047 42.3046875 111.44921875 C43.25361877 111.9329747 44.20255005 112.41673065 45.18023682 112.91514587 C47.13541099 113.91119829 49.09077654 114.90687513 51.04632568 115.90219116 C56.24078542 118.54630225 61.43299141 121.19482976 66.625 123.84375 C68.14926102 124.62137947 68.14926102 124.62137947 69.70431519 125.41471863 C78.6124162 129.96190264 87.49830283 134.5504475 96.37597656 139.15673828 C105.94035081 144.11527803 115.52809455 149.02740414 125.11923218 153.93392944 C127.78566519 155.29876439 130.4512178 156.6653024 133.11645508 158.0324707 C134.84975062 158.92142866 136.58306744 159.81034515 138.31640625 160.69921875 C139.16133133 161.13250992 140.00625641 161.56580109 140.87678528 162.01222229 C145.4310204 164.34540862 149.99142686 166.66548494 154.56201172 168.96647644 C156.46759872 169.92691892 158.37071644 170.89206472 160.27294922 171.85913086 C162.50034375 172.9903445 164.73208528 174.11306346 166.96923828 175.22485352 C175.36712666 179.51209487 183.09470322 184.20263408 186.55859375 193.3671875 C188.54991833 200.91195765 187.43458451 206.69082642 183.69921875 213.4765625 C181.5359961 216.72978105 179.11144278 219.16605057 176.1875 221.75 C176.97511719 221.99492187 177.76273437 222.23984375 178.57421875 222.4921875 C192.21951608 227.17518895 202.90293393 235.07519945 210.1875 247.75 C216.50132812 260.66249058 218.62749138 274.2621121 214.15234375 288.203125 C208.55043326 302.99035431 198.78010887 313.22501194 184.43359375 320.0625 C172.00155554 324.98464613 159.02216081 325.02738918 145.875 324.875 C144.34440698 324.86493778 142.81380746 324.85581773 141.28320312 324.84765625 C137.5844973 324.82592788 133.88604231 324.79158181 130.1875 324.75 C130.66153374 323.15067757 131.13708765 321.55180566 131.61328125 319.953125 C131.87794189 319.06270508 132.14260254 318.17228516 132.4152832 317.25488281 C133.01228658 315.31834957 133.67953034 313.40339065 134.375 311.5 C136.60035149 301.22914695 135.95155705 289.27811409 131.1875 279.75 C131.1504222 278.27122875 131.17415072 276.79066354 131.23046875 275.3125 C131.57321885 262.85172997 131.66106696 253.89319622 123.4375 243.9375 C115.64537399 235.80160373 105.80363054 230.86587239 94.4140625 230.50390625 C89.99947576 230.46106719 85.5983678 230.57356529 81.1875 230.75 C81.16171875 230.14414062 81.1359375 229.53828125 81.109375 228.9140625 C80.315952 217.19304097 75.68788863 207.60053643 67.234375 199.41796875 C63.57249012 196.43395187 59.51220569 194.58615031 55.1875 192.75 C54.51332031 192.42902344 53.83914063 192.10804688 53.14453125 191.77734375 C43.47108018 187.75453528 31.0122897 188.55104167 21.34765625 192.08203125 C17.90258659 193.14732404 14.76551534 192.94877863 11.1875 192.75 C10.90777344 191.81800781 10.62804687 190.88601563 10.33984375 189.92578125 C4.26101069 170.31973238 -5.24573949 156.52810024 -22.8125 145.75 C-24.79906518 144.72356989 -26.79526656 143.71476382 -28.8125 142.75 C-28.8125 142.09 -28.8125 141.43 -28.8125 140.75 C-9.34398434 131.22285404 11.24061693 128.63900473 32.06445312 135.57861328 C48.11973623 141.29688117 63.08647169 152.47001164 71.1875 167.75 C71.1875 168.41 71.1875 169.07 71.1875 169.75 C72.06792969 169.47285156 72.94835937 169.19570312 73.85546875 168.91015625 C75.01691406 168.54792969 76.17835938 168.18570313 77.375 167.8125 C78.52355469 167.45285156 79.67210937 167.09320313 80.85546875 166.72265625 C85.33271729 165.41569859 89.38185508 164.62222165 94.05078125 164.65234375 C94.93701172 164.65556641 95.82324219 164.65878906 96.73632812 164.66210938 C97.64833984 164.67048828 98.56035156 164.67886719 99.5 164.6875 C100.43134766 164.69201172 101.36269531 164.69652344 102.32226562 164.70117188 C104.61074373 164.71290766 106.89908808 164.72932637 109.1875 164.75 C108.6719606 164.48707657 108.1564212 164.22415314 107.6252594 163.95326233 C63.63068443 141.51482115 63.63068443 141.51482115 45.3125 132.0625 C33.58768955 126.01298284 21.85387899 119.98126616 10.11199951 113.9649353 C8.31554399 113.04443363 6.51919444 112.1237251 4.72296143 111.20278931 C3.87030701 110.7656662 3.01765259 110.32854309 2.13916016 109.87817383 C1.30789612 109.4518718 0.47663208 109.02556976 -0.37982178 108.58634949 C-1.9938182 107.7607817 -3.60922351 106.93796159 -5.22613525 106.11811829 C-8.66767323 104.37261214 -12.0905169 102.61288615 -15.46240234 100.73583984 C-17.03368896 99.8823999 -17.03368896 99.8823999 -18.63671875 99.01171875 C-19.50772217 98.52018311 -20.37872559 98.02864746 -21.27612305 97.5222168 C-26.05609543 96.06692248 -30.29064987 98.86248501 -34.54296875 101 C-35.43048828 101.44472656 -36.31800781 101.88945312 -37.23242188 102.34765625 C-38.14572266 102.81042969 -39.05902344 103.27320313 -40 103.75 C-40.86302734 104.18183594 -41.72605469 104.61367187 -42.61523438 105.05859375 C-48.66368256 108.10221771 -54.65801166 111.24330174 -60.64453125 114.40625 C-70.49253725 119.60659681 -80.40403013 124.67835635 -90.32855225 129.73080444 C-95.50432065 132.36590566 -100.67788449 135.00532881 -105.8515625 137.64453125 C-106.88121124 138.16968826 -107.91085999 138.69484528 -108.97171021 139.23591614 C-117.88665413 143.78435419 -126.79006203 148.35492992 -135.6875 152.9375 C-145.77590143 158.1334684 -155.86967554 163.31862657 -165.97271729 168.48608398 C-172.94161349 172.05054843 -179.90731819 175.62119938 -186.871521 179.19482422 C-191.12810515 181.37794273 -195.3886341 183.55281859 -199.65637207 185.71405029 C-202.33685493 187.07346595 -205.01165583 188.44398185 -207.6875 189.8125 C-208.60176758 190.27060059 -209.51603516 190.72870117 -210.45800781 191.20068359 C-211.27366211 191.62043457 -212.08931641 192.04018555 -212.9296875 192.47265625 C-213.61659668 192.82078369 -214.30350586 193.16891113 -215.01123047 193.52758789 C-217.19746096 195.01124959 -218.43150542 196.50367154 -219.8125 198.75 C-219.97061388 201.80270463 -219.97061388 201.80270463 -218.8125 204.75 C-215.08744025 208.42738988 -212.14156786 209.37677965 -207 210 C-203.9371875 210.37125 -203.9371875 210.37125 -200.8125 210.75 C-201.4725 216.03 -202.1325 221.31 -202.8125 226.75 C-214.14752799 226.41661682 -222.6639214 225.43984453 -230.75 217 C-235.20673902 211.37376209 -237.1795846 205.88028826 -236.75 198.6875 C-235.47812528 190.21707659 -232.25840982 185.67798904 -225.49707031 180.56762695 C-220.73601937 177.34408892 -215.61506286 174.91493599 -210.4375 172.4375 C-202.0105834 168.34934901 -193.68234571 164.13023536 -185.40515137 159.74862671 C-176.58499795 155.08608956 -167.69930023 150.55444114 -158.80981445 146.02587891 C-153.84307166 143.49543638 -148.87847981 140.96078237 -143.9140625 138.42578125 C-142.93967224 137.92825348 -141.96528198 137.43072571 -140.96136475 136.91812134 C-133.39838473 133.05423398 -125.85056751 129.16225368 -118.3125 125.25 C-108.89133568 120.36105532 -99.45177211 115.50947597 -89.99603271 110.68771362 C-85.05450964 108.16763366 -80.11743844 105.63966552 -75.19042969 103.09130859 C-67.00494283 98.86614141 -58.84776464 94.67724973 -50.40625 90.984375 C-40.13380139 87.10358548 -40.13380139 87.10358548 -32.76025391 79.63134766 C-31.77863223 75.76964633 -31.81130405 72.32914228 -32.34765625 68.40234375 C-32.8125 64.75 -32.8125 64.75 -32.12109375 62.37890625 C-29.44598159 59.04899052 -26.1208828 58.50831451 -22.0625 57.875 C-13.92115277 56.29462083 -8.7255774 53.72670117 -4 46.75390625 C-0.35256593 40.59886125 0.1030797 34.34328641 -1.27734375 27.41796875 C-3.32303623 20.31251619 -7.06853473 15.03523497 -13.5625 11.375 C-20.11324595 8.51060538 -26.22666147 7.85600848 -33 10.3125 C-38.94294111 13.01724013 -44.27435195 16.54690274 -46.8125 22.75 C-47.35514183 25.29438724 -47.75419636 27.83959298 -48.15234375 30.41015625 C-48.90281594 33.07011388 -49.62815463 34.08968998 -51.8125 35.75 C-55.75003839 36.84376066 -57.93725264 37.1038234 -61.75 35.5625 C-64.57649162 31.70819325 -64.63110542 28.89173603 -64.41796875 24.1796875 C-62.74393227 14.69708084 -57.74106368 6.34297833 -50.19921875 0.36328125 C-34.5826786 -10.19257977 -15.72746819 -11.50021881 0 0 Z M142.1875 181.75 C142.55101562 182.22308594 142.91453125 182.69617188 143.2890625 183.18359375 C144.94212128 185.35800184 146.56936191 187.54947963 148.1875 189.75 C148.70183594 190.44738281 149.21617187 191.14476562 149.74609375 191.86328125 C153.90699226 197.77499939 156.61136651 204.01329693 159.1875 210.75 C165.14592987 209.18857745 165.14592987 209.18857745 170.25 205.9375 C171.55200609 202.89948579 171.72237984 201.02613904 171.1875 197.75 C166.93183709 192.34195076 161.09258241 189.88349369 155 186.9375 C153.4850293 186.18436523 153.4850293 186.18436523 151.93945312 185.41601562 C147.27032515 182.80913089 147.27032515 182.80913089 142.1875 181.75 Z " fill="#323233" transform="translate(267.8125,66.25)"/>
<path d="M0 0 C13.41216437 8.2197121 22.30501454 19.68257162 26.23046875 35.01171875 C28.40550355 49.72649497 25.63379915 64.13035046 16.7109375 76.16796875 C5.24754792 89.74576292 -9.05110372 95.78452453 -26.38671875 97.6015625 C-32.1539071 97.88988305 -37.92750332 97.79346265 -43.69921875 97.7265625 C-45.22981177 97.71650028 -46.76041129 97.70738023 -48.29101562 97.69921875 C-51.98972145 97.67749038 -55.68817644 97.64314431 -59.38671875 97.6015625 C-58.91268501 96.00224007 -58.4371311 94.40336816 -57.9609375 92.8046875 C-57.69627686 91.91426758 -57.43161621 91.02384766 -57.15893555 90.10644531 C-56.56193217 88.16991207 -55.89468841 86.25495315 -55.19921875 84.3515625 C-52.97386726 74.08070945 -53.6226617 62.12967659 -58.38671875 52.6015625 C-58.42379655 51.12279125 -58.40006803 49.64222604 -58.34375 48.1640625 C-58.0009999 35.70329247 -57.91315179 26.74475872 -66.13671875 16.7890625 C-73.92884476 8.65316623 -83.77058821 3.71743489 -95.16015625 3.35546875 C-99.57474299 3.31262969 -103.97585095 3.42512779 -108.38671875 3.6015625 C-108.38671875 1.9515625 -108.38671875 0.3015625 -108.38671875 -1.3984375 C-107.36687393 -1.40430374 -106.34702911 -1.41016998 -105.29627991 -1.41621399 C-95.65985627 -1.47356101 -86.02365571 -1.54638487 -76.38745975 -1.63415241 C-71.4340231 -1.67877711 -66.48066719 -1.71805052 -61.52709961 -1.74487305 C-56.74180455 -1.77098499 -51.95682155 -1.81144283 -47.1717205 -1.86162376 C-45.35103694 -1.87823925 -43.53029946 -1.88978651 -41.70955086 -1.89605141 C-39.14856796 -1.9057507 -36.58837393 -1.93387811 -34.02758789 -1.96606445 C-32.91195717 -1.96391182 -32.91195717 -1.96391182 -31.77378845 -1.9617157 C-26.91927498 -2.04735324 -23.00064768 -3.01281362 -18.4850378 -4.80621624 C-12.26060006 -6.5629769 -5.39639646 -2.87024509 0 0 Z " fill="#151F55" transform="translate(457.38671875,293.3984375)"/>
<path d="M0 0 C6.28643866 5.54531899 12.0432127 11.53679143 16 19 C16 19.66 16 20.32 16 21 C16.88042969 20.72285156 17.76085937 20.44570312 18.66796875 20.16015625 C19.82941406 19.79792969 20.99085938 19.43570313 22.1875 19.0625 C23.33605469 18.70285156 24.48460937 18.34320313 25.66796875 17.97265625 C31.62804791 16.23284416 37.00795403 15.78889565 43.1875 15.75 C43.98736328 15.729375 44.78722656 15.70875 45.61132812 15.6875 C55.54543574 15.62366638 63.83975024 19.01142932 72.5 23.625 C73.32661133 24.06521484 74.15322266 24.50542969 75.00488281 24.95898438 C89.01993767 32.65374077 98.55031162 43.90662342 104 59 C104 59.99 104 60.98 104 62 C93.24739388 62.13896354 82.49500102 62.2456024 71.74168015 62.31087303 C66.74852555 62.34219856 61.75598484 62.38469357 56.76318359 62.45263672 C51.94559949 62.51778588 47.12860612 62.55369684 42.31061554 62.56926346 C40.47170966 62.58035784 38.63283647 62.60202306 36.79418182 62.63438034 C34.21982242 62.67788672 31.64790951 62.68393686 29.07324219 62.68115234 C28.31151199 62.702724 27.5497818 62.72429565 26.76496887 62.746521 C24.63201904 62.7215271 24.63201904 62.7215271 21 62 C18.59356689 59.07876587 18.59356689 59.07876587 17 56 C12.26365512 50.14436964 6.87305013 46.91810682 0 44 C-0.67417969 43.67902344 -1.34835937 43.35804688 -2.04296875 43.02734375 C-11.71641982 39.00453528 -24.1752103 39.80104167 -33.83984375 43.33203125 C-37.28491341 44.39732404 -40.42198466 44.19877863 -44 44 C-44.27972656 43.06800781 -44.55945313 42.13601563 -44.84765625 41.17578125 C-50.92648931 21.56973238 -60.43323949 7.77810024 -78 -3 C-79.98656518 -4.02643011 -81.98276656 -5.03523618 -84 -6 C-84 -6.66 -84 -7.32 -84 -8 C-55.96735343 -21.71810364 -24.48396992 -19.9475182 0 0 Z " fill="#151F55" transform="translate(323,215)"/>
</svg>
