<?xml version="1.0" standalone="no"?>
<!DOCTYPE svg PUBLIC "-//W3C//DTD SVG 20010904//EN"
 "http://www.w3.org/TR/2001/REC-SVG-20010904/DTD/svg10.dtd">
<svg version="1.0" xmlns="http://www.w3.org/2000/svg"
 width="750.000000pt" height="1000.000000pt" viewBox="0 0 750.000000 1000.000000"
 preserveAspectRatio="xMidYMid meet">

<g transform="translate(0.000000,1000.000000) scale(0.100000,-0.100000)"
fill="#000000" stroke="none">
<path d="M2077 8479 c-65 -9 -136 -38 -182 -73 -29 -23 -215 -139 -375 -234
-193 -115 -473 -318 -629 -456 -157 -139 -382 -411 -489 -591 -108 -183 -258
-579 -308 -815 -31 -144 -42 -376 -25 -503 15 -111 80 -326 132 -434 38 -80
236 -357 320 -448 36 -39 41 -50 48 -117 12 -102 6 -268 -14 -360 -39 -190
-134 -404 -254 -573 -80 -112 -177 -300 -216 -419 -184 -552 -53 -1181 313
-1498 114 -99 176 -136 298 -177 221 -73 480 -132 774 -175 283 -41 509 -54
1325 -76 1376 -37 2865 37 3375 169 168 43 310 112 432 210 343 272 615 725
744 1234 81 323 115 540 140 894 28 411 11 663 -67 971 -72 285 -140 396 -414
670 -106 105 -197 192 -203 192 -12 0 -42 -44 -42 -62 0 -16 -83 -159 -120
-208 -15 -19 -69 -93 -121 -165 -227 -315 -405 -437 -825 -568 l-81 -25 -114
34 c-237 71 -483 166 -679 263 -150 74 -455 242 -507 280 l-40 29 23 89 c41
152 55 252 61 428 16 489 -146 972 -447 1330 -105 125 -265 289 -359 368 -47
40 -219 172 -381 294 -162 123 -342 259 -400 303 -142 109 -336 207 -434 220
-84 11 -179 11 -259 -1z m184 -139 c186 -18 284 -62 484 -220 61 -48 169 -131
240 -184 442 -329 529 -400 673 -551 196 -205 293 -340 392 -547 70 -146 112
-270 146 -433 36 -165 45 -477 19 -639 -29 -189 -93 -377 -172 -511 -10 -17
-31 -52 -47 -79 -15 -27 -114 -139 -219 -250 -245 -259 -351 -403 -418 -566
-42 -103 -26 -302 30 -371 11 -13 22 -21 25 -18 4 3 7 66 9 140 2 154 10 177
99 308 106 156 187 251 423 496 114 118 191 224 251 346 l37 76 68 -49 c196
-143 619 -351 939 -463 178 -62 499 -154 630 -182 145 -30 348 -38 388 -15 13
8 22 16 19 18 -2 2 -58 18 -123 34 -65 16 -163 44 -217 62 l-98 33 148 62
c269 113 418 232 606 483 114 153 177 259 203 343 10 31 20 57 23 57 3 0 22
-24 41 -52 19 -28 82 -101 139 -162 197 -208 263 -341 325 -656 43 -218 49
-303 43 -579 -4 -141 -8 -269 -11 -286 -2 -16 -7 -68 -11 -114 -9 -135 -45
-363 -61 -396 -9 -16 -22 -75 -30 -130 -79 -535 -381 -1071 -769 -1365 -118
-90 -168 -114 -313 -149 -374 -92 -959 -145 -1877 -172 -415 -12 -1532 -5
-1860 11 -99 5 -265 12 -370 15 -531 14 -1165 133 -1430 268 -218 111 -387
342 -460 631 -83 327 -43 713 104 1003 22 43 78 137 126 208 182 273 286 550
297 792 2 35 6 63 9 63 8 0 106 -198 118 -240 5 -19 15 -70 22 -113 6 -43 15
-80 19 -82 19 -12 34 33 38 113 5 102 -29 260 -79 370 -37 82 -121 207 -200
297 -123 142 -272 349 -315 440 -23 50 -60 146 -81 215 l-38 125 1 210 c0 180
3 224 22 305 33 144 109 374 158 481 24 53 44 99 44 103 0 16 95 196 138 261
85 130 298 378 416 485 158 143 398 312 746 525 124 76 239 149 255 161 62 47
101 51 286 34z"/>
<path d="M3245 7312 c-146 -51 -240 -211 -264 -450 -18 -173 13 -382 75 -503
77 -152 228 -226 349 -170 92 42 177 180 211 341 24 114 24 357 1 452 -62 253
-213 387 -372 330z m104 -117 c63 -32 139 -172 155 -285 8 -49 11 -51 -45 25
-78 105 -190 130 -293 65 l-46 -30 6 28 c12 54 65 151 100 181 39 35 78 40
123 16z m76 -320 c62 -30 75 -116 26 -166 -63 -63 -161 -14 -161 82 0 22 10
41 34 65 38 38 53 41 101 19z"/>
<path d="M973 7299 c-58 -17 -140 -103 -182 -193 -66 -139 -86 -236 -86 -416
0 -135 3 -165 23 -230 62 -195 162 -300 288 -300 66 1 120 27 176 87 120 129
185 376 160 601 -36 316 -195 504 -379 451z m136 -134 c36 -33 81 -116 96
-178 l7 -28 -49 31 c-27 17 -65 33 -84 36 -70 12 -157 -30 -208 -101 -56 -77
-52 -74 -45 -30 17 117 80 240 143 282 50 34 93 30 140 -12z m74 -285 c75 -83
-13 -207 -111 -156 -38 20 -52 44 -52 91 0 46 13 71 48 90 37 21 81 11 115
-25z"/>
<path d="M2100 6264 c-140 -21 -236 -62 -335 -142 -38 -32 -79 -62 -90 -67
-11 -4 -108 -11 -215 -15 -216 -7 -258 -16 -365 -81 -137 -81 -219 -202 -252
-373 -13 -72 -15 -102 -6 -160 43 -300 409 -556 923 -646 159 -28 470 -38 632
-21 472 51 835 213 1071 478 79 89 89 115 94 258 4 105 2 128 -17 185 -12 36
-35 86 -52 113 -88 137 -291 239 -508 253 -151 9 -167 13 -210 49 -53 44 -183
109 -268 134 -110 32 -305 49 -402 35z m205 -134 c132 -12 228 -42 340 -107
76 -44 180 -118 255 -183 49 -42 170 -63 170 -29 0 4 -19 21 -42 38 -24 16
-58 45 -77 64 l-33 35 43 -5 c79 -9 201 -43 275 -77 90 -42 155 -102 191 -175
26 -51 28 -66 28 -171 0 -134 -9 -162 -74 -237 -63 -71 -212 -188 -291 -228
-455 -228 -1122 -269 -1611 -99 -254 88 -420 208 -518 374 -23 40 -26 55 -25
130 2 99 36 219 83 288 31 48 110 111 184 149 50 25 135 38 305 46 81 4 82 3
65 -16 -10 -11 -44 -37 -76 -59 -32 -22 -55 -44 -51 -50 11 -17 124 -3 171 21
23 11 69 44 103 73 227 193 261 210 460 227 8 0 65 -4 125 -9z"/>
<path d="M2056 5569 c-111 -16 -251 -62 -486 -159 -64 -26 -189 -50 -263 -50
-90 0 -144 19 -217 78 -68 55 -93 56 -66 4 29 -56 99 -107 182 -132 183 -54
311 -36 603 85 103 43 247 76 336 76 106 1 227 -31 441 -116 l169 -67 125 -5
c172 -7 265 19 422 118 46 30 84 74 70 82 -4 3 -56 -15 -117 -40 -163 -65
-219 -76 -349 -69 -104 6 -117 10 -272 71 -177 70 -302 109 -404 125 -73 11
-91 11 -174 -1z"/>
<path d="M4750 4326 c-294 -109 -543 -383 -635 -701 -40 -139 -51 -277 -32
-406 19 -126 44 -203 105 -324 54 -106 116 -175 228 -255 183 -130 335 -201
554 -259 186 -49 312 -64 525 -64 333 1 575 54 850 187 336 163 544 395 601
669 13 63 13 72 -1 86 -23 23 -39 0 -59 -84 -67 -273 -347 -517 -734 -639
-233 -73 -535 -107 -781 -88 -346 27 -609 112 -852 274 -131 87 -187 146 -242
259 -60 122 -77 189 -84 326 -7 131 6 227 46 346 88 260 250 452 524 621 42
26 77 52 77 57 0 13 -48 10 -90 -5z"/>
<path d="M6065 3853 c-77 -24 -95 -32 -95 -44 0 -21 112 -6 148 20 58 41 37
51 -53 24z"/>
<path d="M6749 3767 c-54 -57 -186 -158 -240 -184 -60 -29 -70 -39 -45 -49 60
-23 278 123 319 213 17 38 -5 51 -34 20z"/>
<path d="M2607 3200 c-115 -20 -217 -137 -257 -295 -60 -236 30 -490 204 -574
58 -29 167 -39 220 -21 122 40 196 198 196 420 0 132 -13 205 -51 287 -65 137
-182 206 -312 183z m109 -189 c112 -69 133 -401 33 -516 -28 -31 -37 -35 -80
-35 -45 0 -54 4 -92 43 -65 65 -93 177 -76 310 21 170 117 258 215 198z"/>
<path d="M586 3170 c-108 -39 -174 -98 -219 -198 -17 -37 -21 -66 -20 -137 1
-165 62 -321 169 -429 117 -118 293 -114 402 9 23 26 42 51 42 54 0 3 -23 32
-51 64 l-51 58 -49 -46 c-44 -41 -52 -45 -99 -45 -58 0 -93 15 -131 57 -82 89
-119 236 -88 346 14 51 78 114 124 123 51 9 109 -10 156 -53 22 -20 43 -32 48
-27 45 53 91 113 91 119 0 18 -58 79 -94 97 -60 31 -156 34 -230 8z"/>
<path d="M1164 3151 c-157 -74 -204 -253 -97 -372 44 -49 60 -57 193 -104 116
-40 160 -72 160 -117 0 -93 -157 -90 -283 6 l-33 25 -32 -64 -31 -64 36 -32
c128 -112 350 -131 440 -37 42 44 53 76 53 156 0 127 -68 218 -199 266 -36 13
-88 32 -114 42 -69 25 -97 50 -97 85 0 94 137 107 246 24 l33 -25 45 66 c25
36 46 69 46 74 0 13 -71 66 -114 84 -24 10 -67 16 -115 16 -63 0 -86 -5 -137
-29z"/>
<path d="M1788 3173 l-47 -4 -11 -55 c-21 -101 -30 -178 -30 -270 l0 -91 46
-33 c46 -32 46 -33 99 -20 123 30 203 -11 213 -109 4 -46 2 -53 -26 -81 -25
-24 -39 -30 -74 -30 -47 0 -110 25 -162 65 l-33 25 -38 -61 c-35 -58 -36 -61
-20 -80 31 -34 113 -80 167 -95 102 -27 216 -10 271 41 51 49 71 102 71 190
-1 44 -6 98 -12 120 -16 56 -57 116 -99 145 -37 26 -144 52 -180 45 -13 -3
-34 -7 -48 -10 l-26 -6 3 73 3 73 161 3 161 2 2 68 c1 37 4 75 7 85 5 16 -7
17 -173 15 -98 -1 -199 -3 -225 -5z"/>
<path d="M3000 2425 c-6 -8 -10 -20 -7 -27 4 -8 6 -7 6 4 1 9 9 22 19 27 9 6
12 11 6 11 -6 0 -17 -7 -24 -15z"/>
<path d="M3061 2437 c2 -1 13 -9 24 -17 19 -14 19 -14 6 3 -7 9 -18 17 -24 17
-6 0 -8 -1 -6 -3z"/>
<path d="M3020 2390 c0 -16 5 -30 10 -30 6 0 10 5 10 12 0 6 7 3 16 -8 13 -16
15 -16 10 -2 -3 10 -1 20 4 23 17 10 -2 35 -26 35 -20 0 -24 -5 -24 -30z m40
10 c0 -5 -4 -10 -10 -10 -5 0 -10 5 -10 10 0 6 5 10 10 10 6 0 10 -4 10 -10z"/>
<path d="M3101 2383 c-1 -29 -43 -57 -71 -48 -12 4 -25 16 -30 28 -7 17 -9 18
-9 5 -1 -23 43 -51 67 -44 29 10 54 42 49 63 -4 15 -5 14 -6 -4z"/>
</g>
</svg>
