<svg xmlns="http://www.w3.org/2000/svg" xmlns:xlink="http://www.w3.org/1999/xlink" width="500" zoomAndPan="magnify" viewBox="0 0 375 374.999991" height="500" preserveAspectRatio="xMidYMid meet" version="1.0"><defs><clipPath id="36cb6b9a2a"><path d="M 115 148.105469 L 362.835938 148.105469 L 362.835938 293 L 115 293 Z M 115 148.105469 " clip-rule="nonzero"/></clipPath><clipPath id="96f8c2d538"><path d="M 55.691406 169 L 304 169 L 304 313 L 55.691406 313 Z M 55.691406 169 " clip-rule="nonzero"/></clipPath><clipPath id="969392c728"><path d="M 23 44 L 341 44 L 341 219.199219 L 23 219.199219 Z M 23 44 " clip-rule="nonzero"/></clipPath><clipPath id="a0fab2251a"><path d="M 22 152.773438 L 301 152.773438 L 301 282.527344 L 22 282.527344 Z M 22 152.773438 " clip-rule="nonzero"/></clipPath><clipPath id="3a272fecfc"><path d="M 22 257 L 245 257 L 245 282.527344 L 22 282.527344 Z M 22 257 " clip-rule="nonzero"/></clipPath></defs><g clip-path="url(#36cb6b9a2a)"><path fill="#151f55" d="M 206.628906 148.785156 C 204.824219 148.785156 203.027344 148.875 201.230469 149.050781 C 199.4375 149.226562 197.65625 149.492188 195.886719 149.84375 C 194.117188 150.195312 192.371094 150.632812 190.644531 151.15625 C 188.917969 151.679688 187.222656 152.289062 185.554688 152.976562 C 183.886719 153.667969 182.261719 154.4375 180.667969 155.289062 C 179.078125 156.140625 177.535156 157.066406 176.035156 158.066406 C 174.535156 159.070312 173.085938 160.140625 171.695312 161.285156 C 170.300781 162.429688 168.964844 163.640625 167.6875 164.914062 C 166.414062 166.191406 165.203125 167.527344 164.058594 168.921875 C 162.914062 170.3125 161.84375 171.761719 160.839844 173.261719 C 159.839844 174.761719 158.914062 176.304688 158.0625 177.894531 C 157.210938 179.488281 156.441406 181.117188 155.75 182.78125 C 155.0625 184.449219 154.453125 186.144531 153.929688 187.871094 C 153.40625 189.59375 152.96875 191.34375 152.617188 193.113281 C 152.265625 194.882812 152 196.664062 151.824219 198.457031 C 151.648438 200.253906 151.558594 202.050781 151.558594 203.855469 C 151.570312 205.894531 151.699219 207.925781 151.933594 209.949219 C 131.164062 213.679688 115.582031 230.457031 115.582031 250.707031 C 115.582031 273.71875 135.695312 292.242188 160.679688 292.242188 L 321.582031 292.242188 C 344.589844 292.242188 363.117188 275.023438 363.117188 253.636719 C 363.117188 232.382812 344.820312 215.253906 322.011719 215.039062 C 321.828125 213.617188 321.585938 212.203125 321.277344 210.800781 C 320.96875 209.394531 320.597656 208.011719 320.164062 206.640625 C 319.730469 205.273438 319.234375 203.925781 318.679688 202.601562 C 318.125 201.273438 317.511719 199.976562 316.839844 198.710938 C 316.167969 197.441406 315.4375 196.203125 314.65625 195 C 313.871094 193.796875 313.035156 192.632812 312.144531 191.503906 C 311.253906 190.375 310.316406 189.289062 309.328125 188.246094 C 308.339844 187.203125 307.308594 186.207031 306.230469 185.257812 C 305.152344 184.308594 304.035156 183.410156 302.875 182.5625 C 301.71875 181.710938 300.523438 180.917969 299.292969 180.175781 C 298.0625 179.4375 296.800781 178.753906 295.507812 178.125 C 294.214844 177.5 292.898438 176.933594 291.554688 176.425781 C 290.210938 175.917969 288.84375 175.472656 287.460938 175.085938 C 286.078125 174.703125 284.679688 174.382812 283.265625 174.121094 C 281.851562 173.863281 280.433594 173.671875 279 173.542969 C 277.570312 173.410156 276.136719 173.347656 274.699219 173.347656 C 267.839844 173.355469 261.289062 174.78125 255.042969 177.617188 C 253.867188 175.449219 252.550781 173.367188 251.097656 171.375 C 249.640625 169.378906 248.058594 167.492188 246.347656 165.710938 C 244.636719 163.933594 242.816406 162.273438 240.882812 160.738281 C 238.953125 159.203125 236.925781 157.804688 234.804688 156.539062 C 232.683594 155.277344 230.488281 154.164062 228.214844 153.195312 C 225.945312 152.226562 223.621094 151.414062 221.238281 150.761719 C 218.859375 150.105469 216.445312 149.613281 214 149.28125 C 211.554688 148.953125 209.097656 148.785156 206.628906 148.785156 Z M 206.628906 148.785156 " fill-opacity="1" fill-rule="nonzero"/></g><g clip-path="url(#96f8c2d538)"><path fill="#86a3bf" d="M 146.761719 169.507812 C 144.957031 169.507812 143.15625 169.597656 141.363281 169.773438 C 139.566406 169.953125 137.785156 170.214844 136.015625 170.566406 C 134.25 170.921875 132.5 171.359375 130.773438 171.882812 C 129.050781 172.40625 127.351562 173.011719 125.6875 173.703125 C 124.019531 174.390625 122.390625 175.164062 120.800781 176.011719 C 119.210938 176.863281 117.664062 177.789062 116.167969 178.789062 C 114.667969 179.792969 113.21875 180.867188 111.824219 182.011719 C 110.429688 183.15625 109.097656 184.363281 107.820312 185.640625 C 106.546875 186.914062 105.335938 188.25 104.191406 189.644531 C 103.046875 191.039062 101.972656 192.484375 100.972656 193.984375 C 99.96875 195.484375 99.042969 197.027344 98.195312 198.621094 C 97.34375 200.210938 96.574219 201.839844 95.882812 203.503906 C 95.195312 205.171875 94.585938 206.867188 94.0625 208.59375 C 93.539062 210.320312 93.101562 212.066406 92.75 213.835938 C 92.398438 215.605469 92.132812 217.386719 91.957031 219.179688 C 91.78125 220.976562 91.691406 222.773438 91.691406 224.578125 C 91.703125 226.617188 91.828125 228.648438 92.066406 230.675781 C 71.296875 234.402344 55.714844 251.179688 55.714844 271.433594 C 55.714844 294.441406 75.828125 312.964844 100.808594 312.964844 L 261.714844 312.964844 C 284.722656 312.964844 303.246094 295.746094 303.246094 274.359375 C 303.246094 253.105469 284.953125 235.976562 262.140625 235.765625 C 261.960938 234.339844 261.71875 232.925781 261.410156 231.523438 C 261.101562 230.121094 260.730469 228.734375 260.296875 227.363281 C 259.863281 225.996094 259.367188 224.648438 258.8125 223.324219 C 258.257812 222 257.644531 220.703125 256.972656 219.433594 C 256.296875 218.164062 255.570312 216.925781 254.785156 215.722656 C 254.003906 214.519531 253.164062 213.355469 252.277344 212.226562 C 251.386719 211.097656 250.449219 210.015625 249.460938 208.972656 C 248.472656 207.929688 247.441406 206.933594 246.363281 205.980469 C 245.285156 205.03125 244.167969 204.132812 243.007812 203.285156 C 241.847656 202.4375 240.652344 201.640625 239.421875 200.902344 C 238.191406 200.160156 236.929688 199.476562 235.640625 198.847656 C 234.347656 198.222656 233.027344 197.65625 231.683594 197.148438 C 230.339844 196.640625 228.976562 196.195312 227.59375 195.808594 C 226.210938 195.425781 224.8125 195.105469 223.398438 194.847656 C 221.984375 194.589844 220.5625 194.394531 219.132812 194.265625 C 217.703125 194.136719 216.269531 194.070312 214.832031 194.070312 C 207.972656 194.082031 201.421875 195.503906 195.175781 198.34375 C 194 196.171875 192.683594 194.089844 191.226562 192.097656 C 189.773438 190.105469 188.1875 188.214844 186.480469 186.4375 C 184.769531 184.65625 182.949219 182.996094 181.015625 181.460938 C 179.082031 179.925781 177.054688 178.527344 174.9375 177.265625 C 172.816406 176 170.617188 174.886719 168.347656 173.917969 C 166.078125 172.949219 163.753906 172.140625 161.371094 171.484375 C 158.992188 170.828125 156.578125 170.335938 154.132812 170.003906 C 151.6875 169.675781 149.230469 169.507812 146.761719 169.507812 Z M 146.761719 169.507812 " fill-opacity="1" fill-rule="nonzero"/></g><g clip-path="url(#969392c728)"><path fill="#333333" d="M 182.371094 120.960938 L 39.128906 194.5 C 33.871094 197.199219 33.703125 202.941406 38.664062 206.191406 L 38.671875 206.183594 C 40.625 207.351562 42.738281 207.914062 45.011719 207.867188 L 319.734375 207.867188 C 329.542969 207.867188 333.203125 198.390625 325.613281 194.5 Z M 164.300781 71.085938 C 164.273438 78.457031 153.023438 78.550781 153.070312 70.941406 C 153.152344 54.84375 170.074219 43.429688 182.347656 44.164062 C 195.664062 44.402344 204.878906 51.738281 209.398438 61.28125 C 217.53125 78.449219 209.707031 100.5625 188.007812 104.90625 L 188.007812 111.21875 L 330.726562 184.484375 C 348.910156 193.820312 341.265625 219.160156 319.734375 219.160156 L 45.011719 219.160156 C 42.835938 219.175781 40.699219 218.890625 38.601562 218.304688 C 36.507812 217.71875 34.53125 216.851562 32.679688 215.710938 L 32.683594 215.699219 C 20.609375 208.101562 20.671875 191.335938 34.019531 184.484375 C 81.589844 160.066406 129.160156 135.644531 176.730469 111.21875 L 176.730469 99.976562 L 176.746094 99.976562 C 176.746094 99.625 176.777344 99.273438 176.84375 98.925781 C 176.910156 98.578125 177.007812 98.238281 177.136719 97.910156 C 177.269531 97.578125 177.425781 97.265625 177.617188 96.964844 C 177.804688 96.667969 178.019531 96.386719 178.261719 96.128906 C 178.503906 95.871094 178.765625 95.636719 179.054688 95.425781 C 179.339844 95.21875 179.640625 95.039062 179.960938 94.886719 C 180.28125 94.734375 180.609375 94.613281 180.953125 94.523438 C 181.296875 94.433594 181.644531 94.378906 181.996094 94.355469 C 209.515625 92.507812 205.964844 55.429688 181.773438 55.429688 C 174.304688 55.429688 164.34375 62.179688 164.300781 71.089844 Z M 164.300781 71.085938 " fill-opacity="1" fill-rule="nonzero"/></g><g clip-path="url(#a0fab2251a)"><path fill="#86a3bf" d="M 56.503906 239.757812 C 45.769531 227.621094 45.535156 202.222656 62.0625 193.027344 C 78.585938 183.828125 99.671875 188.847656 115.960938 198.460938 C 116.632812 174.484375 138.511719 153.097656 162.496094 152.972656 C 186.484375 152.84375 208.585938 174 209.511719 197.96875 C 218.238281 189.992188 234.125 188.757812 245.917969 195.285156 C 257.496094 201.695312 262.957031 211.835938 261.59375 223.339844 C 278.039062 218.335938 304.816406 229.773438 299.617188 255.515625 C 292.605469 290.230469 244.042969 285.9375 244.042969 285.9375 C 244.042969 285.9375 232.277344 305.175781 199.582031 308.164062 C 178.144531 310.125 155.054688 302.574219 142.25 290.03125 C 134.582031 298.757812 115.796875 303.617188 89.015625 297.894531 C 76.679688 295.261719 62.753906 284.894531 67.433594 274.496094 C 29.996094 281.257812 20.503906 264.0625 22.195312 254.996094 C 25.835938 235.496094 56.503906 239.757812 56.503906 239.757812 Z M 56.503906 239.757812 " fill-opacity="1" fill-rule="nonzero"/></g><g clip-path="url(#3a272fecfc)"><path fill="#86a3bf" d="M 244.042969 285.933594 C 244.042969 285.933594 232.277344 305.175781 199.582031 308.164062 C 178.144531 310.125 155.054688 302.574219 142.25 290.03125 C 134.582031 298.757812 115.796875 303.617188 89.015625 297.894531 C 76.679688 295.261719 62.753906 284.894531 67.433594 274.496094 C 37.664062 279.871094 25.566406 270.101562 22.707031 261.3125 C 33.113281 271.636719 64.082031 271.878906 79.394531 257.335938 C 79.394531 257.335938 82.542969 278.582031 110.335938 279.175781 C 134.777344 279.695312 148.035156 267.734375 148.035156 267.734375 C 148.035156 267.734375 200.75 313.429688 244.042969 285.933594 Z M 244.042969 285.933594 " fill-opacity="1" fill-rule="nonzero"/></g></svg>