<svg xmlns="http://www.w3.org/2000/svg" xmlns:xlink="http://www.w3.org/1999/xlink" width="500" zoomAndPan="magnify" viewBox="0 0 375 374.999991" height="500" preserveAspectRatio="xMidYMid meet" version="1.0"><defs><clipPath id="804e3d8b69"><path d="M 13.945312 13.945312 L 361.054688 13.945312 L 361.054688 361.054688 L 13.945312 361.054688 Z M 13.945312 13.945312 " clip-rule="nonzero"/></clipPath><clipPath id="d5b7447a3a"><path d="M 187.5 13.945312 C 91.648438 13.945312 13.945312 91.648438 13.945312 187.5 C 13.945312 283.351562 91.648438 361.054688 187.5 361.054688 C 283.351562 361.054688 361.054688 283.351562 361.054688 187.5 C 361.054688 91.648438 283.351562 13.945312 187.5 13.945312 Z M 187.5 13.945312 " clip-rule="nonzero"/></clipPath><clipPath id="923a3e3ab0"><path d="M 140 79.316406 L 337.222656 79.316406 L 337.222656 191 L 140 191 Z M 140 79.316406 " clip-rule="nonzero"/></clipPath></defs><rect x="-37.5" width="450" fill="#ffffff" y="-37.499999" height="449.999989" fill-opacity="1"/><rect x="-37.5" width="450" fill="#ffffff" y="-37.499999" height="449.999989" fill-opacity="1"/><g clip-path="url(#804e3d8b69)"><g clip-path="url(#d5b7447a3a)"><path fill="#f4f6fc" d="M 13.945312 13.945312 L 361.054688 13.945312 L 361.054688 361.054688 L 13.945312 361.054688 Z M 13.945312 13.945312 " fill-opacity="1" fill-rule="nonzero"/></g></g><g clip-path="url(#923a3e3ab0)"><path fill="#86a3bf" d="M 319.277344 189.515625 C 317.933594 189.90625 316.515625 190.113281 315.046875 190.113281 L 169.253906 190.113281 C 169.125 190.113281 168.992188 190.113281 168.855469 190.109375 C 168.71875 190.113281 168.582031 190.113281 168.445312 190.113281 C 152.800781 190.113281 140.125 177.433594 140.125 161.792969 C 140.125 146.148438 152.804688 133.472656 168.445312 133.472656 C 171.863281 133.472656 175.136719 134.078125 178.167969 135.1875 C 180.179688 115.390625 196.902344 99.941406 217.230469 99.941406 C 219.726562 99.941406 222.167969 100.175781 224.53125 100.621094 C 233.796875 87.71875 248.929688 79.3125 266.023438 79.3125 C 294.214844 79.3125 317.070312 102.167969 317.070312 130.359375 C 317.070312 134.863281 316.488281 139.230469 315.390625 143.390625 C 327.660156 144.109375 337.386719 154.28125 337.386719 166.730469 C 337.386719 177.832031 329.652344 187.125 319.277344 189.515625 Z M 319.277344 189.515625 " fill-opacity="1" fill-rule="evenodd"/></g><path fill="#c6e0f7" d="M 275.03125 216.035156 C 274.730469 216.054688 274.425781 216.066406 274.121094 216.066406 L 79.210938 216.066406 C 79.078125 216.066406 78.945312 216.066406 78.816406 216.0625 C 78.675781 216.0625 78.539062 216.066406 78.398438 216.066406 C 62.757812 216.066406 50.078125 203.386719 50.078125 187.742188 C 50.078125 172.101562 62.757812 159.421875 78.398438 159.421875 C 81.816406 159.421875 85.09375 160.027344 88.125 161.136719 C 90.140625 141.339844 106.859375 125.890625 127.1875 125.890625 C 127.855469 125.890625 128.519531 125.910156 129.183594 125.941406 C 137.054688 107.910156 155.046875 95.300781 175.980469 95.300781 C 199.875 95.300781 219.929688 111.71875 225.492188 133.886719 C 229.199219 132.730469 233.136719 132.105469 237.222656 132.105469 C 258.214844 132.105469 275.355469 148.578125 276.433594 169.296875 C 289.222656 169.441406 299.550781 179.855469 299.550781 192.679688 C 299.550781 205.59375 289.082031 216.0625 276.164062 216.0625 C 275.785156 216.066406 275.40625 216.054688 275.03125 216.035156 Z M 275.03125 216.035156 " fill-opacity="1" fill-rule="evenodd"/><path fill="#78b1e3" d="M 105.902344 202.441406 C 105.902344 202.441406 112.222656 233.066406 96.445312 226.992188 C 80.671875 220.921875 105.902344 202.441406 105.902344 202.441406 Z M 105.902344 202.441406 " fill-opacity="1" fill-rule="evenodd"/><path fill="#78b1e3" d="M 136.445312 202.441406 C 136.445312 202.441406 142.765625 233.066406 126.992188 226.992188 C 111.214844 220.921875 136.445312 202.441406 136.445312 202.441406 Z M 136.445312 202.441406 " fill-opacity="1" fill-rule="evenodd"/><path fill="#78b1e3" d="M 166.992188 202.441406 C 166.992188 202.441406 173.3125 233.066406 157.535156 226.992188 C 141.761719 220.921875 166.992188 202.441406 166.992188 202.441406 Z M 166.992188 202.441406 " fill-opacity="1" fill-rule="evenodd"/><path fill="#78b1e3" d="M 197.539062 202.441406 C 197.539062 202.441406 203.859375 233.066406 188.085938 226.992188 C 172.308594 220.921875 197.539062 202.441406 197.539062 202.441406 Z M 197.539062 202.441406 " fill-opacity="1" fill-rule="evenodd"/><path fill="#78b1e3" d="M 228.085938 202.441406 C 228.085938 202.441406 234.40625 233.066406 218.628906 226.992188 C 202.855469 220.921875 228.085938 202.441406 228.085938 202.441406 Z M 228.085938 202.441406 " fill-opacity="1" fill-rule="evenodd"/><path fill="#78b1e3" d="M 258.628906 202.441406 C 258.628906 202.441406 264.949219 233.066406 249.175781 226.992188 C 233.398438 220.921875 258.628906 202.441406 258.628906 202.441406 Z M 258.628906 202.441406 " fill-opacity="1" fill-rule="evenodd"/><path fill="#78b1e3" d="M 118.601562 234.335938 C 118.601562 234.335938 124.925781 264.960938 109.148438 258.886719 C 93.375 252.816406 118.601562 234.335938 118.601562 234.335938 Z M 118.601562 234.335938 " fill-opacity="1" fill-rule="evenodd"/><path fill="#78b1e3" d="M 149.148438 234.335938 C 149.148438 234.335938 155.472656 264.960938 139.695312 258.886719 C 123.917969 252.816406 149.148438 234.335938 149.148438 234.335938 Z M 149.148438 234.335938 " fill-opacity="1" fill-rule="evenodd"/><path fill="#78b1e3" d="M 179.695312 234.335938 C 179.695312 234.335938 186.019531 264.960938 170.242188 258.886719 C 154.46875 252.816406 179.695312 234.335938 179.695312 234.335938 Z M 179.695312 234.335938 " fill-opacity="1" fill-rule="evenodd"/><path fill="#78b1e3" d="M 210.242188 234.335938 C 210.242188 234.335938 216.5625 264.960938 200.789062 258.886719 C 185.011719 252.816406 210.242188 234.335938 210.242188 234.335938 Z M 210.242188 234.335938 " fill-opacity="1" fill-rule="evenodd"/><path fill="#78b1e3" d="M 240.789062 234.335938 C 240.789062 234.335938 247.109375 264.960938 231.332031 258.886719 C 215.558594 252.816406 240.789062 234.335938 240.789062 234.335938 Z M 240.789062 234.335938 " fill-opacity="1" fill-rule="evenodd"/><path fill="#78b1e3" d="M 128.050781 265.054688 C 128.050781 265.054688 134.371094 295.683594 118.59375 289.609375 C 102.820312 283.535156 128.050781 265.054688 128.050781 265.054688 Z M 128.050781 265.054688 " fill-opacity="1" fill-rule="evenodd"/><path fill="#78b1e3" d="M 158.59375 265.054688 C 158.59375 265.054688 164.914062 295.683594 149.140625 289.609375 C 133.363281 283.535156 158.59375 265.054688 158.59375 265.054688 Z M 158.59375 265.054688 " fill-opacity="1" fill-rule="evenodd"/><path fill="#78b1e3" d="M 189.140625 265.054688 C 189.140625 265.054688 195.460938 295.683594 179.683594 289.609375 C 163.910156 283.535156 189.140625 265.054688 189.140625 265.054688 Z M 189.140625 265.054688 " fill-opacity="1" fill-rule="evenodd"/><path fill="#78b1e3" d="M 219.6875 265.054688 C 219.6875 265.054688 226.007812 295.683594 210.234375 289.609375 C 194.457031 283.535156 219.6875 265.054688 219.6875 265.054688 Z M 219.6875 265.054688 " fill-opacity="1" fill-rule="evenodd"/></svg>