<svg xmlns="http://www.w3.org/2000/svg" xmlns:xlink="http://www.w3.org/1999/xlink" width="500" zoomAndPan="magnify" viewBox="0 0 375 374.999991" height="500" preserveAspectRatio="xMidYMid meet" version="1.0"><defs><clipPath id="c1de2eaabb"><path d="M 13.945312 13.945312 L 361.054688 13.945312 L 361.054688 361.054688 L 13.945312 361.054688 Z M 13.945312 13.945312 " clip-rule="nonzero"/></clipPath><clipPath id="310aabe073"><path d="M 187.5 13.945312 C 91.648438 13.945312 13.945312 91.648438 13.945312 187.5 C 13.945312 283.351562 91.648438 361.054688 187.5 361.054688 C 283.351562 361.054688 361.054688 283.351562 361.054688 187.5 C 361.054688 91.648438 283.351562 13.945312 187.5 13.945312 Z M 187.5 13.945312 " clip-rule="nonzero"/></clipPath><clipPath id="d686f2b302"><path d="M 240 77.457031 L 253 77.457031 L 253 107 L 240 107 Z M 240 77.457031 " clip-rule="nonzero"/></clipPath><clipPath id="3cf92011df"><path d="M 304 159 L 334.230469 159 L 334.230469 172 L 304 172 Z M 304 159 " clip-rule="nonzero"/></clipPath><clipPath id="dfa4dc375f"><path d="M 51 147 L 280 147 L 280 280.707031 L 51 280.707031 Z M 51 147 " clip-rule="nonzero"/></clipPath></defs><g clip-path="url(#c1de2eaabb)"><g clip-path="url(#310aabe073)"><path fill="#f4f6fc" d="M 13.945312 13.945312 L 361.054688 13.945312 L 361.054688 361.054688 L 13.945312 361.054688 Z M 13.945312 13.945312 " fill-opacity="1" fill-rule="nonzero"/></g></g><path fill="#ffcc00" d="M 291.003906 165.238281 C 291.003906 166.703125 290.929688 168.160156 290.789062 169.617188 C 290.644531 171.074219 290.429688 172.523438 290.144531 173.957031 C 289.859375 175.394531 289.503906 176.8125 289.078125 178.210938 C 288.652344 179.613281 288.160156 180.988281 287.601562 182.34375 C 287.039062 183.695312 286.414062 185.015625 285.726562 186.308594 C 285.035156 187.597656 284.28125 188.851562 283.46875 190.070312 C 282.65625 191.289062 281.785156 192.460938 280.855469 193.59375 C 279.929688 194.726562 278.945312 195.808594 277.910156 196.84375 C 276.875 197.878906 275.792969 198.859375 274.660156 199.789062 C 273.527344 200.71875 272.355469 201.589844 271.136719 202.402344 C 269.921875 203.214844 268.664062 203.96875 267.375 204.65625 C 266.082031 205.347656 264.761719 205.972656 263.410156 206.53125 C 262.058594 207.09375 260.679688 207.585938 259.28125 208.011719 C 257.878906 208.4375 256.460938 208.789062 255.023438 209.078125 C 253.589844 209.363281 252.140625 209.578125 250.6875 209.71875 C 249.230469 209.863281 247.769531 209.933594 246.304688 209.933594 C 244.839844 209.933594 243.378906 209.863281 241.921875 209.71875 C 240.464844 209.578125 239.019531 209.363281 237.585938 209.078125 C 236.148438 208.789062 234.730469 208.4375 233.328125 208.011719 C 231.929688 207.585938 230.550781 207.09375 229.199219 206.53125 C 227.847656 205.972656 226.523438 205.347656 225.234375 204.65625 C 223.941406 203.96875 222.6875 203.214844 221.472656 202.402344 C 220.253906 201.589844 219.078125 200.71875 217.949219 199.789062 C 216.816406 198.859375 215.734375 197.878906 214.699219 196.84375 C 213.664062 195.808594 212.679688 194.726562 211.753906 193.59375 C 210.824219 192.460938 209.953125 191.289062 209.140625 190.070312 C 208.324219 188.851562 207.574219 187.597656 206.882812 186.308594 C 206.195312 185.015625 205.570312 183.695312 205.007812 182.34375 C 204.449219 180.988281 203.957031 179.613281 203.53125 178.210938 C 203.105469 176.8125 202.75 175.394531 202.464844 173.957031 C 202.179688 172.523438 201.964844 171.074219 201.820312 169.617188 C 201.679688 168.160156 201.605469 166.703125 201.605469 165.238281 C 201.605469 163.773438 201.679688 162.3125 201.820312 160.855469 C 201.964844 159.398438 202.179688 157.953125 202.464844 156.515625 C 202.75 155.082031 203.105469 153.664062 203.53125 152.261719 C 203.957031 150.863281 204.449219 149.484375 205.007812 148.132812 C 205.570312 146.78125 206.195312 145.457031 206.882812 144.167969 C 207.574219 142.875 208.324219 141.621094 209.140625 140.40625 C 209.953125 139.1875 210.824219 138.011719 211.753906 136.882812 C 212.679688 135.75 213.664062 134.667969 214.699219 133.632812 C 215.734375 132.597656 216.816406 131.613281 217.949219 130.683594 C 219.078125 129.757812 220.253906 128.886719 221.472656 128.074219 C 222.6875 127.257812 223.941406 126.507812 225.234375 125.816406 C 226.523438 125.128906 227.847656 124.5 229.199219 123.941406 C 230.550781 123.382812 231.929688 122.890625 233.328125 122.464844 C 234.730469 122.039062 236.148438 121.683594 237.585938 121.398438 C 239.019531 121.113281 240.464844 120.898438 241.921875 120.753906 C 243.378906 120.609375 244.839844 120.539062 246.304688 120.539062 C 247.769531 120.539062 249.230469 120.609375 250.6875 120.753906 C 252.140625 120.898438 253.589844 121.113281 255.023438 121.398438 C 256.460938 121.683594 257.878906 122.039062 259.28125 122.464844 C 260.679688 122.890625 262.058594 123.382812 263.410156 123.941406 C 264.761719 124.5 266.082031 125.128906 267.375 125.816406 C 268.664062 126.507812 269.921875 127.257812 271.136719 128.074219 C 272.355469 128.886719 273.527344 129.757812 274.660156 130.683594 C 275.792969 131.613281 276.875 132.597656 277.910156 133.632812 C 278.945312 134.667969 279.929688 135.75 280.855469 136.882812 C 281.785156 138.011719 282.65625 139.1875 283.46875 140.40625 C 284.28125 141.621094 285.035156 142.875 285.726562 144.167969 C 286.414062 145.457031 287.039062 146.78125 287.601562 148.132812 C 288.160156 149.484375 288.652344 150.863281 289.078125 152.261719 C 289.503906 153.664062 289.859375 155.082031 290.144531 156.515625 C 290.429688 157.953125 290.644531 159.398438 290.789062 160.855469 C 290.929688 162.3125 291.003906 163.773438 291.003906 165.238281 Z M 291.003906 165.238281 " fill-opacity="1" fill-rule="nonzero"/><g clip-path="url(#d686f2b302)"><path fill="#ffcc00" d="M 246.304688 77.4375 C 243.0625 77.4375 240.449219 80.570312 240.449219 84.460938 L 240.449219 99.679688 C 240.449219 103.570312 243.0625 106.703125 246.304688 106.703125 C 249.546875 106.703125 252.15625 103.570312 252.15625 99.679688 L 252.15625 84.460938 C 252.15625 80.570312 249.546875 77.4375 246.304688 77.4375 Z M 246.304688 77.4375 " fill-opacity="1" fill-rule="nonzero"/></g><path fill="#ffcc00" d="M 308.390625 103.152344 C 306.097656 100.859375 302.035156 101.230469 299.285156 103.980469 L 288.523438 114.742188 C 285.769531 117.492188 285.402344 121.554688 287.695312 123.847656 C 289.988281 126.140625 294.046875 125.773438 296.800781 123.019531 L 307.5625 112.257812 C 310.3125 109.507812 310.683594 105.445312 308.390625 103.152344 Z M 308.390625 103.152344 " fill-opacity="1" fill-rule="nonzero"/><g clip-path="url(#3cf92011df)"><path fill="#ffcc00" d="M 334.105469 165.238281 C 334.105469 161.996094 330.972656 159.386719 327.082031 159.386719 L 311.863281 159.386719 C 307.972656 159.386719 304.839844 161.996094 304.839844 165.238281 C 304.839844 168.480469 307.972656 171.089844 311.863281 171.09375 L 327.082031 171.09375 C 330.972656 171.09375 334.105469 168.480469 334.105469 165.238281 Z M 334.105469 165.238281 " fill-opacity="1" fill-rule="nonzero"/></g><path fill="#ffcc00" d="M 308.390625 227.324219 C 310.683594 225.03125 310.3125 220.96875 307.5625 218.21875 L 296.800781 207.457031 C 294.046875 204.703125 289.988281 204.335938 287.695312 206.628906 C 285.402344 208.921875 285.769531 212.984375 288.523438 215.734375 L 299.285156 226.496094 C 302.035156 229.246094 306.097656 229.617188 308.390625 227.324219 Z M 308.390625 227.324219 " fill-opacity="1" fill-rule="nonzero"/><path fill="#ffcc00" d="M 246.304688 253.039062 C 249.546875 253.039062 252.15625 249.90625 252.15625 246.015625 L 252.15625 230.796875 C 252.15625 226.90625 249.546875 223.773438 246.304688 223.773438 C 243.0625 223.773438 240.449219 226.90625 240.449219 230.796875 L 240.449219 246.015625 C 240.449219 249.90625 243.0625 253.039062 246.304688 253.039062 Z M 246.304688 253.039062 " fill-opacity="1" fill-rule="nonzero"/><path fill="#ffcc00" d="M 184.21875 227.324219 C 186.511719 229.617188 190.574219 229.246094 193.324219 226.496094 L 204.085938 215.734375 C 206.835938 212.984375 207.207031 208.921875 204.914062 206.628906 C 202.621094 204.335938 198.558594 204.703125 195.808594 207.457031 L 185.046875 218.21875 C 182.292969 220.96875 181.925781 225.03125 184.21875 227.324219 Z M 184.21875 227.324219 " fill-opacity="1" fill-rule="nonzero"/><path fill="#ffcc00" d="M 158.5 165.238281 C 158.5 168.480469 161.632812 171.089844 165.527344 171.089844 L 180.746094 171.089844 C 184.636719 171.089844 187.769531 168.480469 187.769531 165.238281 C 187.769531 161.996094 184.636719 159.386719 180.746094 159.386719 L 165.527344 159.386719 C 161.632812 159.386719 158.5 161.996094 158.5 165.238281 Z M 158.5 165.238281 " fill-opacity="1" fill-rule="nonzero"/><path fill="#ffcc00" d="M 184.21875 103.152344 C 181.925781 105.445312 182.292969 109.507812 185.046875 112.257812 L 195.808594 123.019531 C 198.558594 125.773438 202.621094 126.140625 204.914062 123.847656 C 207.207031 121.554688 206.835938 117.492188 204.085938 114.742188 L 193.324219 103.980469 C 190.574219 101.230469 186.511719 100.859375 184.21875 103.152344 Z M 184.21875 103.152344 " fill-opacity="1" fill-rule="nonzero"/><g clip-path="url(#dfa4dc375f)"><path fill="#86a3bf" d="M 135.210938 147.988281 C 133.542969 147.988281 131.878906 148.070312 130.222656 148.234375 C 128.5625 148.398438 126.914062 148.640625 125.277344 148.964844 C 123.644531 149.292969 122.027344 149.695312 120.433594 150.179688 C 118.835938 150.664062 117.269531 151.226562 115.730469 151.863281 C 114.1875 152.5 112.683594 153.214844 111.214844 154 C 109.742188 154.785156 108.316406 155.640625 106.929688 156.566406 C 105.542969 157.492188 104.203125 158.484375 102.917969 159.542969 C 101.628906 160.601562 100.394531 161.71875 99.214844 162.898438 C 98.035156 164.078125 96.917969 165.3125 95.859375 166.601562 C 94.800781 167.890625 93.808594 169.226562 92.882812 170.613281 C 91.957031 172 91.101562 173.425781 90.316406 174.898438 C 89.53125 176.367188 88.816406 177.875 88.179688 179.414062 C 87.542969 180.953125 86.980469 182.523438 86.496094 184.117188 C 86.011719 185.710938 85.609375 187.328125 85.28125 188.960938 C 84.957031 190.597656 84.714844 192.246094 84.550781 193.90625 C 84.386719 195.5625 84.304688 197.226562 84.304688 198.894531 C 84.316406 200.777344 84.433594 202.65625 84.652344 204.527344 C 65.453125 207.976562 51.046875 223.484375 51.046875 242.203125 C 51.046875 263.476562 69.640625 280.597656 92.734375 280.597656 L 241.472656 280.597656 C 262.742188 280.597656 279.867188 264.679688 279.867188 244.910156 C 279.867188 225.265625 262.953125 209.429688 241.867188 209.234375 C 241.703125 207.917969 241.476562 206.609375 241.191406 205.3125 C 240.90625 204.015625 240.5625 202.734375 240.164062 201.46875 C 239.761719 200.203125 239.304688 198.957031 238.789062 197.734375 C 238.277344 196.507812 237.710938 195.308594 237.089844 194.136719 C 236.46875 192.964844 235.792969 191.820312 235.070312 190.707031 C 234.34375 189.597656 233.570312 188.519531 232.75 187.476562 C 231.925781 186.433594 231.058594 185.429688 230.144531 184.464844 C 229.234375 183.5 228.277344 182.582031 227.28125 181.703125 C 226.285156 180.824219 225.253906 179.992188 224.179688 179.210938 C 223.109375 178.425781 222.003906 177.691406 220.867188 177.003906 C 219.730469 176.320312 218.5625 175.6875 217.371094 175.109375 C 216.175781 174.53125 214.957031 174.007812 213.714844 173.535156 C 212.472656 173.066406 211.210938 172.65625 209.933594 172.300781 C 208.652344 171.945312 207.359375 171.648438 206.054688 171.410156 C 204.746094 171.171875 203.433594 170.992188 202.109375 170.871094 C 200.789062 170.753906 199.464844 170.691406 198.136719 170.691406 C 191.796875 170.703125 185.738281 172.019531 179.964844 174.640625 C 178.878906 172.632812 177.660156 170.710938 176.316406 168.867188 C 174.96875 167.023438 173.507812 165.28125 171.925781 163.636719 C 170.347656 161.988281 168.664062 160.457031 166.875 159.035156 C 165.089844 157.617188 163.214844 156.324219 161.253906 155.15625 C 159.292969 153.988281 157.265625 152.957031 155.164062 152.0625 C 153.066406 151.167969 150.917969 150.417969 148.71875 149.8125 C 146.515625 149.207031 144.285156 148.753906 142.023438 148.445312 C 139.765625 148.140625 137.492188 147.988281 135.210938 147.988281 Z M 135.210938 147.988281 " fill-opacity="1" fill-rule="nonzero"/></g></svg>