<?xml version="1.0" encoding="UTF-8"?>
<svg version="1.1" xmlns="http://www.w3.org/2000/svg" width="500" height="500">
<path d="M0 0 C3.77043032 -0.14496508 7.54014742 -0.23395607 11.3125 -0.3125 C12.9202832 -0.3753418 12.9202832 -0.3753418 14.56054688 -0.43945312 C15.58857422 -0.45556641 16.61660156 -0.47167969 17.67578125 -0.48828125 C18.62364502 -0.51446533 19.57150879 -0.54064941 20.5480957 -0.56762695 C23 0 23 0 24.51721191 2.18643188 C25.97348194 4.94968238 27.11074028 7.65021874 28.17651367 10.5847168 C28.57670212 11.67902512 28.97689056 12.77333344 29.38920593 13.90080261 C29.81119766 15.07177994 30.23318939 16.24275726 30.66796875 17.44921875 C31.10764481 18.65818314 31.54732086 19.86714752 32.00032043 21.11274719 C32.92723699 23.66261411 33.85058941 26.21373343 34.77124023 28.76586914 C35.95247417 32.0398693 37.1412043 35.31108542 38.33240795 38.58146954 C39.46851073 41.7028175 40.59936623 44.82605518 41.73046875 47.94921875 C42.37256538 49.71479378 42.37256538 49.71479378 43.02763367 51.51603699 C43.61373161 53.14331474 43.61373161 53.14331474 44.21166992 54.8034668 C44.55791916 55.76101364 44.9041684 56.71856049 45.26091003 57.7051239 C46 60 46 60 46 62 C46.58659897 61.99777939 47.17319794 61.99555878 47.77757263 61.99327087 C53.86025384 61.9712179 59.94292377 61.95609336 66.02563477 61.94506836 C68.29842591 61.94002675 70.5712138 61.93319363 72.84399414 61.92456055 C76.10303551 61.91248739 79.36203417 61.90677013 82.62109375 61.90234375 C83.64400009 61.89718246 84.66690643 61.89202118 85.72080994 61.88670349 C86.66170975 61.88662796 87.60260956 61.88655243 88.57202148 61.88647461 C89.40475082 61.884254 90.23748016 61.88203339 91.09544373 61.87974548 C93 62 93 62 94 63 C94.09981214 65.6773138 94.13879875 68.32304175 94.125 71 C94.12886719 71.75023437 94.13273438 72.50046875 94.13671875 73.2734375 C94.12661053 78.87338947 94.12661053 78.87338947 93 80 C91.5112814 80.08669432 90.018555 80.10703494 88.52734375 80.09765625 C87.62822266 80.09443359 86.72910156 80.09121094 85.80273438 80.08789062 C84.38444336 80.07532227 84.38444336 80.07532227 82.9375 80.0625 C81.5134082 80.05573242 81.5134082 80.05573242 80.06054688 80.04882812 C77.70696935 80.0370011 75.35351523 80.02052025 73 80 C73.00222061 80.68682358 73.00444122 81.37364716 73.00672913 82.08128357 C73.02877895 89.20205162 73.04390533 96.32281004 73.05493164 103.44360352 C73.05997383 106.10441481 73.06680736 108.76522332 73.07543945 111.42602539 C73.08751009 115.24105516 73.09322929 119.05604844 73.09765625 122.87109375 C73.10281754 124.06899033 73.10797882 125.2668869 73.11329651 126.50108337 C73.11337204 127.6021492 73.11344757 128.70321503 73.11352539 129.83764648 C73.115746 130.81249496 73.11796661 131.78734344 73.12025452 132.79173279 C73 135 73 135 72 136 C65.4 136 58.8 136 52 136 C52 117.52 52 99.04 52 80 C45.4 80 38.8 80 32 80 C29.69770126 77.69770126 29.35567394 76.28931803 28.5 73.1875 C27.51118958 69.63530605 26.38298581 66.45746451 25 63 C21.37 63 17.74 63 14 63 C14.01160156 63.99902344 14.02320313 64.99804688 14.03515625 66.02734375 C14.04417969 67.31769531 14.05320312 68.60804688 14.0625 69.9375 C14.07410156 71.22527344 14.08570313 72.51304687 14.09765625 73.83984375 C14 77 14 77 13 78 C10.40640678 78.08851529 7.83960309 78.11525945 5.24609375 78.09765625 C4.47064713 78.0962413 3.6952005 78.09482635 2.89625549 78.09336853 C0.40996506 78.08775345 -2.0762366 78.07519846 -4.5625 78.0625 C-6.24413933 78.05748694 -7.92578006 78.0529237 -9.60742188 78.04882812 C-13.73831566 78.03777913 -17.86914276 78.02050445 -22 78 C-22 82.29 -22 86.58 -22 91 C-21.04109863 90.98952637 -20.08219727 90.97905273 -19.09423828 90.96826172 C-15.54219281 90.93210672 -11.99016366 90.90911607 -8.43798828 90.89013672 C-6.89954902 90.88006882 -5.36112893 90.86641354 -3.82275391 90.84912109 C-1.61355867 90.82490683 0.59538395 90.81352509 2.8046875 90.8046875 C3.49432587 90.79436493 4.18396423 90.78404236 4.89450073 90.77340698 C6.59800906 90.77300522 8.30085943 90.87808974 10 91 C12 93 12 93 12.265625 95.49609375 C12.26046875 96.46675781 12.2553125 97.43742187 12.25 98.4375 C12.25773437 99.88962891 12.25773437 99.88962891 12.265625 101.37109375 C12 104 12 104 10 107 C7.51659097 107.26727014 5.28527932 107.34866334 2.8046875 107.29296875 C2.09724396 107.28872391 1.38980042 107.28447906 0.66091919 107.28010559 C-1.60143905 107.26329547 -3.86291048 107.22564128 -6.125 107.1875 C-7.65753923 107.17245607 -9.1900924 107.15876716 -10.72265625 107.14648438 C-14.48211318 107.11338462 -18.24090618 107.06158825 -22 107 C-22 111.29 -22 115.58 -22 120 C-20.37203491 119.99214478 -20.37203491 119.99214478 -18.71118164 119.98413086 C-14.69882018 119.96608164 -10.68646233 119.95456829 -6.67407227 119.94506836 C-4.93480832 119.94002796 -3.19554864 119.9331957 -1.45629883 119.92456055 C1.03825937 119.91248208 3.53276173 119.90676892 6.02734375 119.90234375 C6.80963852 119.89718246 7.59193329 119.89202118 8.39793396 119.88670349 C10.26567114 119.88650774 12.13329204 119.93800306 14 120 C15 121 15 121 15.1328125 124.125 C15.13023437 125.40375 15.12765625 126.6825 15.125 128 C15.12886719 129.918125 15.12886719 129.918125 15.1328125 131.875 C15 135 15 135 14 136 C12.2507128 136.09365006 10.49763746 136.11744438 8.74584961 136.11352539 C7.60901733 136.11340454 6.47218506 136.11328369 5.30090332 136.11315918 C4.09687866 136.10804321 2.892854 136.10292725 1.65234375 136.09765625 C0.55249146 136.09664917 -0.54736084 136.09564209 -1.68054199 136.09460449 C-5.80787186 136.08935362 -9.93518693 136.07539251 -14.0625 136.0625 C-23.281875 136.041875 -32.50125 136.02125 -42 136 C-42 111.58 -42 87.16 -42 62 C-35.73 61.67 -29.46 61.34 -23 61 C-22.37432129 59.29424805 -21.74864258 57.58849609 -21.10400391 55.83105469 C-19.03440981 50.19053349 -16.96266069 44.55080784 -14.88944435 38.91161728 C-13.63274437 35.49312472 -12.37690712 32.07432042 -11.12304688 28.65478516 C-9.91259532 25.35373291 -8.69987063 22.053524 -7.48557663 18.75388336 C-6.79826776 16.88441316 -6.11330538 15.01408081 -5.42837524 13.14373779 C-5.00809052 12.00285706 -4.58780579 10.86197632 -4.15478516 9.68652344 C-3.78616364 8.68280701 -3.41754211 7.67909058 -3.03775024 6.6449585 C-2.13687194 4.34885139 -1.14754381 2.18096052 0 0 Z M11 21 C8.36 28.92 5.72 36.84 3 45 C8.61 45 14.22 45 20 45 C17.90481079 36.72951627 15.1829131 28.91325036 12 21 C11.67 21 11.34 21 11 21 Z " fill="#151F55" transform="translate(388,169)"/>
<path d="M0 0 C6.00773554 4.13479584 10.98451483 9.03540583 12.4921875 16.40625 C12.78020108 18.626062 13.02401787 20.76153424 13 23 C12 24 12 24 10.05053711 24.11352539 C9.2178833 24.10828857 8.38522949 24.10305176 7.52734375 24.09765625 C6.62822266 24.09443359 5.72910156 24.09121094 4.80273438 24.08789062 C3.85720703 24.07951172 2.91167969 24.07113281 1.9375 24.0625 C0.5134082 24.05573242 0.5134082 24.05573242 -0.93945312 24.04882812 C-3.29303065 24.0370011 -5.64648477 24.02052025 -8 24 C-8.29124756 23.3292041 -8.58249512 22.6584082 -8.88256836 21.96728516 C-10.43100149 18.52926908 -11.70398692 15.71220158 -15.08984375 13.8515625 C-18.91683229 12.84411594 -22.11407422 12.69323765 -25.875 14 C-29.72246394 16.46237692 -30.42943619 17.71328465 -32 22 C-32.43048179 26.00696299 -32.41876586 29.97354058 -32.375 34 C-32.38660156 35.06734375 -32.39820312 36.1346875 -32.41015625 37.234375 C-32.38498839 43.97936081 -31.99086406 49.00913594 -27 54 C-22.70486743 55.14250526 -18.96182637 55.27221501 -14.6875 54.0625 C-11.06990909 51.59743617 -11.06990909 51.59743617 -8 44 C-1.4 44 5.2 44 12 44 C13.12950519 49.64752596 13.12950519 49.64752596 11.6875 53.625 C11.42324219 54.38039062 11.15898437 55.13578125 10.88671875 55.9140625 C10 58 10 58 8 61 C7.67178368 63.52506703 7.67178368 63.52506703 7.68115234 66.3894043 C7.66128265 67.49031906 7.64141296 68.59123383 7.62094116 69.72550964 C7.60938995 70.91308365 7.59783875 72.10065765 7.5859375 73.32421875 C7.56657135 74.54075638 7.5472052 75.75729401 7.5272522 77.01069641 C7.46738979 80.90289257 7.42104382 84.79511819 7.375 88.6875 C7.33682641 91.32358073 7.29777505 93.95964891 7.2578125 96.59570312 C7.1616827 103.06369078 7.07665461 109.53175382 7 116 C8.53708618 115.99214478 8.53708618 115.99214478 10.10522461 115.98413086 C13.89395276 115.96608031 17.68267709 115.9545678 21.47143555 115.94506836 C23.11369464 115.94002826 24.75594923 115.93319622 26.39819336 115.92456055 C28.75375479 115.91248074 31.10925709 115.90676861 33.46484375 115.90234375 C34.20339096 115.89718246 34.94193817 115.89202118 35.7028656 115.88670349 C37.46898088 115.8865075 39.23497146 115.93805281 41 116 C42.75559942 117.75559942 42.13221919 120.03582442 42.13671875 122.37109375 C42.13285156 123.07363281 42.12898437 123.77617187 42.125 124.5 C42.12886719 125.20253906 42.13273438 125.90507812 42.13671875 126.62890625 C42.12661378 131.87338622 42.12661378 131.87338622 41 133 C39.31198015 133.09353163 37.62004793 133.11744791 35.92944336 133.11352539 C34.84839828 133.11344986 33.76735321 133.11337433 32.65354919 133.11329651 C30.889515 133.10555458 30.889515 133.10555458 29.08984375 133.09765625 C27.89267227 133.0962413 26.69550079 133.09482635 25.46205139 133.09336853 C21.62050934 133.08774979 17.77902457 133.07519411 13.9375 133.0625 C11.34049563 133.05748741 8.74349035 133.05292409 6.14648438 133.04882812 C-0.23569679 133.03777427 -6.6178443 133.02101792 -13 133 C-14.32953792 130.34092416 -14.11986031 128.33434632 -14.11352539 125.35693359 C-14.11341209 123.58532364 -14.11341209 123.58532364 -14.11329651 121.77792358 C-14.10813522 120.49769318 -14.10297394 119.21746277 -14.09765625 117.8984375 C-14.0962413 116.59170074 -14.09482635 115.28496399 -14.09336853 113.93862915 C-14.08954894 110.46323742 -14.07972342 106.98788743 -14.06866455 103.51251221 C-14.05843843 99.96668055 -14.05386833 96.42084215 -14.04882812 92.875 C-14.03810066 85.91664951 -14.02103092 78.95832676 -14 72 C-14.60985245 72.07572235 -15.2197049 72.1514447 -15.84803772 72.22946167 C-16.6523674 72.3250235 -17.45669708 72.42058533 -18.28540039 72.51904297 C-19.08087784 72.61539032 -19.87635529 72.71173767 -20.69593811 72.81100464 C-23.73120754 73.05997879 -26.45255354 72.69171285 -29.4375 72.125 C-30.95150391 71.85042969 -30.95150391 71.85042969 -32.49609375 71.5703125 C-35 71 -35 71 -37 70 C-36.525625 70.804375 -36.05125 71.60875 -35.5625 72.4375 C-33.73500419 76.60419044 -33.03827248 80.45514347 -33 85 C-34 86 -34 86 -35.94946289 86.11352539 C-36.7821167 86.10828857 -37.61477051 86.10305176 -38.47265625 86.09765625 C-39.37177734 86.09443359 -40.27089844 86.09121094 -41.19726562 86.08789062 C-42.61555664 86.07532227 -42.61555664 86.07532227 -44.0625 86.0625 C-45.01189453 86.05798828 -45.96128906 86.05347656 -46.93945312 86.04882812 C-49.29303065 86.0370011 -51.64648477 86.02052025 -54 86 C-54.29124756 85.3292041 -54.58249512 84.6584082 -54.88256836 83.96728516 C-56.43100149 80.52926908 -57.70398692 77.71220158 -61.08984375 75.8515625 C-64.91683229 74.84411594 -68.11407422 74.69323765 -71.875 76 C-75.72246394 78.46237692 -76.42943619 79.71328465 -78 84 C-78.43048179 88.00696299 -78.41876586 91.97354058 -78.375 96 C-78.38660156 97.06734375 -78.39820312 98.1346875 -78.41015625 99.234375 C-78.38498839 105.97936081 -77.99086406 111.00913594 -73 116 C-68.70486743 117.14250526 -64.96182637 117.27221501 -60.6875 116.0625 C-57.06990909 113.59743617 -57.06990909 113.59743617 -54 106 C-47.4 106 -40.8 106 -34 106 C-32.62442288 112.87788559 -34.54239702 117.02648992 -37.5625 123.1875 C-43.78080903 130.36247196 -52.8043925 133.95576277 -62.125 134.75 C-73.20293238 135.43055557 -84.13679879 133.81848559 -92.84765625 126.43359375 C-100.37515313 118.46221499 -100.50963196 108.63515904 -100.44604492 98.19848633 C-100.43752797 96.06949222 -100.46638467 93.94318414 -100.49804688 91.81445312 C-100.54572315 82.51106843 -99.74806965 74.55846309 -93.6875 67.1875 C-92.3571875 66.1046875 -92.3571875 66.1046875 -91 65 C-90.46246094 64.55914062 -89.92492187 64.11828125 -89.37109375 63.6640625 C-82.43035681 58.2915905 -75.46983429 57.69214785 -66.9375 57.8125 C-66.06544922 57.81314453 -65.19339844 57.81378906 -64.29492188 57.81445312 C-59.75661708 57.84537269 -55.46442084 58.08365746 -51 59 C-51.72896484 57.26556641 -51.72896484 57.26556641 -52.47265625 55.49609375 C-54.5698895 49.17720536 -54.48617345 42.78486535 -54.44604492 36.19848633 C-54.43752797 34.06949222 -54.46638467 31.94318414 -54.49804688 29.81445312 C-54.54572315 20.51106843 -53.74806965 12.55846309 -47.6875 5.1875 C-46.800625 4.465625 -45.91375 3.74375 -45 3 C-44.46246094 2.55914062 -43.92492187 2.11828125 -43.37109375 1.6640625 C-32.37253166 -6.84936588 -11.91289317 -6.99548131 0 0 Z " fill="#151F55" transform="translate(121,172)"/>
<path d="M0 0 C0.75603516 -0.07089844 1.51207031 -0.14179688 2.29101562 -0.21484375 C4.73180958 -0.29528622 6.50145226 -0.18089111 8.8125 0.625 C11.47556629 3.25721846 13.0725801 6.33382263 14.8125 9.625 C15.33577881 10.53926758 15.85905762 11.45353516 16.39819336 12.39550781 C18.03395915 15.26454813 19.61587075 18.1578963 21.1875 21.0625 C21.73277344 22.05443359 22.27804687 23.04636719 22.83984375 24.06835938 C23.61134766 25.48665039 23.61134766 25.48665039 24.3984375 26.93359375 C24.8629834 27.78751709 25.3275293 28.64144043 25.80615234 29.52124023 C26.8125 31.625 26.8125 31.625 26.8125 33.625 C27.4725 33.625 28.1325 33.625 28.8125 33.625 C29.21674194 32.56067749 29.21674194 32.56067749 29.62915039 31.47485352 C31.7743734 26.30852627 34.5804583 21.47270621 37.25 16.5625 C37.83587891 15.47388672 38.42175781 14.38527344 39.02539062 13.26367188 C39.59322266 12.21630859 40.16105469 11.16894531 40.74609375 10.08984375 C41.26228271 9.137146 41.77847168 8.18444824 42.31030273 7.20288086 C45.00070197 2.58595813 45.00070197 2.58595813 46.8125 0.625 C49.82582798 0.30235486 52.44086193 0.20123869 55.4375 0.3125 C56.62085938 0.32700195 56.62085938 0.32700195 57.828125 0.34179688 C63.64421971 0.45671971 63.64421971 0.45671971 64.8125 1.625 C64.90689978 3.89491887 64.92992226 6.16781967 64.92602539 8.43969727 C64.92617142 9.15185394 64.92631744 9.86401062 64.9264679 10.5977478 C64.9257687 12.96233112 64.91797606 15.32683661 64.91015625 17.69140625 C64.90829209 19.32665463 64.90686818 20.96190357 64.90586853 22.59715271 C64.90204318 26.90934785 64.89221275 31.22150952 64.88116455 35.53369141 C64.8709508 39.93065946 64.86637099 44.32763289 64.86132812 48.72460938 C64.85059049 57.35809002 64.83299356 65.99153699 64.8125 74.625 C58.5425 74.625 52.2725 74.625 45.8125 74.625 C45.4825 62.415 45.1525 50.205 44.8125 37.625 C41.60779993 43.45667287 41.60779993 43.45667287 38.41064453 49.29248047 C38.00958496 50.01838379 37.60852539 50.74428711 37.1953125 51.4921875 C36.58260498 52.60762939 36.58260498 52.60762939 35.95751953 53.74560547 C34.8125 55.625 34.8125 55.625 32.8125 57.625 C30.7890625 57.9609375 30.7890625 57.9609375 28.4375 58 C27.28121094 58.04253906 27.28121094 58.04253906 26.1015625 58.0859375 C22.85590323 57.43237471 21.88363137 56.20368135 19.8125 53.625 C18.26855656 51.10287078 16.90677474 48.50786945 15.5625 45.875 C13.70625 42.28625 13.70625 42.28625 11.8125 38.625 C11.4825 46.215 11.1525 53.805 10.8125 61.625 C12.58625 61.5425 14.36 61.46 16.1875 61.375 C25.56600016 61.40810059 32.39205819 64.39722281 39.18359375 70.83203125 C42.3955604 74.36750533 43.73591673 77.24650113 44 82 C43.938125 82.86625 43.87625 83.7325 43.8125 84.625 C40.68301748 86.18974126 37.36994398 85.85069951 33.9375 85.875 C33.21691406 85.895625 32.49632812 85.91625 31.75390625 85.9375 C28.48203227 85.9616022 26.1934726 85.83625584 23.3046875 84.234375 C21.8125 82.625 21.8125 82.625 21.8125 80.625 C13.74076457 78.51450916 13.74076457 78.51450916 5.8125 80.625 C5.8125 82.605 5.8125 84.585 5.8125 86.625 C12.12472245 89.1391903 18.39043244 91.04954071 25 92.5625 C31.00715451 93.97380253 36.00515336 95.66974919 40.8125 99.625 C41.59625 100.264375 42.38 100.90375 43.1875 101.5625 C47.14725047 106.58833713 47.5015802 112.46634569 46.8125 118.625 C44.47103805 125.89585553 40.92721771 130.70849521 34.3125 134.375 C22.62156314 139.744171 9.08022174 139.90213182 -3.0625 135.9375 C-9.2216839 133.45048259 -13.53376006 130.2709839 -17.0625 124.625 C-18.20506194 121.57816815 -18.8929838 118.8646782 -19.1875 115.625 C-18.6925 114.635 -18.6925 114.635 -18.1875 113.625 C-15.16446705 113.4619193 -12.15033294 113.34363595 -9.125 113.25 C-8.27744141 113.19972656 -7.42988281 113.14945312 -6.55664062 113.09765625 C-1.73854307 112.98604009 0.99780258 113.29569714 4.65234375 116.58203125 C5.2033374 117.12633789 5.75433105 117.67064453 6.32202148 118.23144531 C8.877657 120.62089126 11.24797311 120.62906971 14.58984375 120.8125 C18.13592234 120.51335805 20.68380897 119.28919736 23.8125 117.625 C23.8125 115.975 23.8125 114.325 23.8125 112.625 C17.69640132 110.23450821 11.63624357 108.29464021 5.25 106.75 C-2.34900999 104.76125706 -10.20000125 102.23226762 -14.75 95.375 C-17.9375119 88.48390285 -17.70156233 81.68180098 -15.26953125 74.6328125 C-14.1875 72.625 -14.1875 72.625 -12.15299988 70.91130066 C-9.52541729 67.85485488 -9.67736645 66.03282676 -9.6574707 62.03637695 C-9.64873932 61.38390991 -9.64000793 60.73144287 -9.63101196 60.0592041 C-9.60668335 57.91028146 -9.61004283 55.76232383 -9.61328125 53.61328125 C-9.60083635 52.11922059 -9.58650218 50.62517456 -9.57035828 49.13114929 C-9.53234552 45.2040606 -9.51714555 41.27722415 -9.50756836 37.34997559 C-9.48781455 31.05329092 -9.43110776 24.75679841 -9.37880516 18.46031761 C-9.36341317 16.25716351 -9.35626024 14.05410485 -9.35066223 11.85090637 C-9.34364965 10.50908358 -9.33654902 9.16726124 -9.3293457 7.82543945 C-9.32586624 6.64947708 -9.32238678 5.47351471 -9.31880188 4.26191711 C-9.04941589 -1.1481236 -4.39431666 0.18263993 0 0 Z " fill="#151F55" transform="translate(280.1875,168.375)"/>
<path d="M0 0 C6.6 0 13.2 0 20 0 C20 18.81 20 37.62 20 57 C30.89 57 41.78 57 53 57 C53.66 58.32 54.32 59.64 55 61 C55.81984375 60.98839844 56.6396875 60.97679687 57.484375 60.96484375 C58.56203125 60.95582031 59.6396875 60.94679687 60.75 60.9375 C62.35101563 60.92009766 62.35101563 60.92009766 63.984375 60.90234375 C66.55797083 60.98568558 68.54456491 61.33054647 71 62 C71.01030746 61.25275665 71.02061493 60.50551331 71.03123474 59.73562622 C71.12911447 52.70185331 71.23161523 45.6681666 71.33933926 38.63453865 C71.39456054 35.0182718 71.44797924 31.40199685 71.49731445 27.78564453 C71.54496978 24.29724878 71.59731296 20.8089523 71.65294075 17.3206749 C71.68331232 15.33867812 71.70879787 13.35660845 71.73423767 11.37454224 C71.75418289 10.17344818 71.77412811 8.97235413 71.79467773 7.73486328 C71.81022202 6.67341095 71.8257663 5.61195862 71.84178162 4.51834106 C72 2 72 2 73 0 C76.31248187 -0.02888146 79.62493167 -0.04675799 82.9375 -0.0625 C83.88302734 -0.07087891 84.82855469 -0.07925781 85.80273438 -0.08789062 C87.15141602 -0.09272461 87.15141602 -0.09272461 88.52734375 -0.09765625 C89.77632446 -0.10551147 89.77632446 -0.10551147 91.05053711 -0.11352539 C93 0 93 0 94 1 C94.0996392 3.23387206 94.12799795 5.47093859 94.12939453 7.70703125 C94.13202301 8.75822647 94.13202301 8.75822647 94.13470459 9.83065796 C94.13912266 12.15796349 94.13618529 14.48519364 94.1328125 16.8125 C94.13348555 18.42293309 94.13445559 20.03336609 94.13571167 21.64379883 C94.13718858 25.02328455 94.13503431 28.4027439 94.13037109 31.78222656 C94.1246738 36.12376505 94.12795285 40.46524173 94.13394356 44.80677795 C94.13754936 48.13350901 94.1364105 51.4602253 94.13381577 54.78695679 C94.13314655 56.38821418 94.13397474 57.9894729 94.13629532 59.59072876 C94.13882216 61.82484511 94.13498085 64.05886 94.12939453 66.29296875 C94.12859894 67.5668042 94.12780334 68.84063965 94.12698364 70.15307617 C94 73 94 73 93 74 C91.00041636 74.04080783 88.99954746 74.04254356 87 74 C87.474375 75.051875 87.94875 76.10375 88.4375 77.1875 C91.55125646 84.09191651 91.21661982 91.18956521 91.25 98.625 C91.270625 99.75035156 91.29125 100.87570312 91.3125 102.03515625 C91.35465457 111.15108197 90.9021928 120.97354473 84.3125 127.9375 C76.30934426 136.01275624 67.09374176 137.69995193 56 138 C44.2686473 137.39645774 36.77562213 134.37139783 28.76171875 125.90234375 C23.74074721 117.63054363 23.52581418 108.3656629 23.625 98.9375 C23.61339844 97.83083984 23.60179687 96.72417969 23.58984375 95.58398438 C23.61701014 87.91853388 24.53832669 80.92334662 28 74 C26.73555054 74.00785522 26.73555054 74.00785522 25.44555664 74.01586914 C22.32772064 74.03287826 19.20990823 74.04543406 16.09204102 74.05493164 C14.74079614 74.05997057 13.38955674 74.06680177 12.03833008 74.07543945 C10.09979566 74.08752419 8.161222 74.09269828 6.22265625 74.09765625 C4.47094116 74.10551147 4.47094116 74.10551147 2.68383789 74.11352539 C0 74 0 74 -1 73 C-1.0996392 70.76612794 -1.12799795 68.52906141 -1.12939453 66.29296875 C-1.13114685 65.59217194 -1.13289917 64.89137512 -1.13470459 64.16934204 C-1.13912266 61.84203651 -1.13618529 59.51480636 -1.1328125 57.1875 C-1.13348555 55.57706691 -1.13445559 53.96663391 -1.13571167 52.35620117 C-1.13718858 48.97671545 -1.13503431 45.5972561 -1.13037109 42.21777344 C-1.1246738 37.87623495 -1.12795285 33.53475827 -1.13394356 29.19322205 C-1.13754936 25.86649099 -1.1364105 22.5397747 -1.13381577 19.21304321 C-1.13314655 17.61178582 -1.13397474 16.0105271 -1.13629532 14.40927124 C-1.13882216 12.17515489 -1.13498085 9.94114 -1.12939453 7.70703125 C-1.12859894 6.4331958 -1.12780334 5.15936035 -1.12698364 3.84692383 C-1 1 -1 1 0 0 Z M49 80 C44.61642879 85.73489291 45.52382019 92.02787974 45.5625 98.9375 C45.54251953 100.20013672 45.52253906 101.46277344 45.50195312 102.76367188 C45.41067846 111.72715137 45.41067846 111.72715137 50 119 C53.63169503 121.3202496 56.92637053 121.25893217 61.06640625 120.6171875 C64.25312706 119.60001197 65.94992612 117.54706149 68 115 C70.20765133 110.58469735 69.22990334 104.59831885 69.25 99.75 C69.270625 98.52152344 69.29125 97.29304688 69.3125 96.02734375 C69.31765625 94.83753906 69.3228125 93.64773438 69.328125 92.421875 C69.3374707 91.33487305 69.34681641 90.24787109 69.35644531 89.12792969 C68.93976918 85.47145394 67.94654921 83.11291164 66 80 C59.27281871 76.39615288 55.74387989 76.50763363 49 80 Z " fill="#85A2BE" transform="translate(154,169)"/>
<path d="M0 0 C4.97573494 3.53696821 8.9851861 7.08148416 11 13 C11.1875 16.375 11.1875 16.375 11 19 C7.87051748 20.56474126 4.55744398 20.22569951 1.125 20.25 C0.40441406 20.270625 -0.31617188 20.29125 -1.05859375 20.3125 C-4.33046773 20.3366022 -6.6190274 20.21125584 -9.5078125 18.609375 C-11 17 -11 17 -11 15 C-19.07173543 12.88950916 -19.07173543 12.88950916 -27 15 C-27 16.98 -27 18.96 -27 21 C-20.68777755 23.5141903 -14.42206756 25.42454071 -7.8125 26.9375 C-1.80534549 28.34880253 3.19265336 30.04474919 8 34 C8.78375 34.639375 9.5675 35.27875 10.375 35.9375 C14.33475047 40.96333713 14.6890802 46.84134569 14 53 C11.65853805 60.27085553 8.11471771 65.08349521 1.5 68.75 C-10.19093686 74.119171 -23.73227826 74.27713182 -35.875 70.3125 C-42.0341839 67.82548259 -46.34626006 64.6459839 -49.875 59 C-51.01756194 55.95316815 -51.7054838 53.2396782 -52 50 C-51.67 49.34 -51.34 48.68 -51 48 C-47.97696705 47.8369193 -44.96283294 47.71863595 -41.9375 47.625 C-41.08994141 47.57472656 -40.24238281 47.52445312 -39.36914062 47.47265625 C-34.55104307 47.36104009 -31.81469742 47.67069714 -28.16015625 50.95703125 C-27.6091626 51.50133789 -27.05816895 52.04564453 -26.49047852 52.60644531 C-23.934843 54.99589126 -21.56452689 55.00406971 -18.22265625 55.1875 C-14.67657766 54.88835805 -12.12869103 53.66419736 -9 52 C-9 50.35 -9 48.7 -9 47 C-15.11609868 44.60950821 -21.17625643 42.66964021 -27.5625 41.125 C-35.16150999 39.13625706 -43.01250125 36.60726762 -47.5625 29.75 C-50.29015539 23.85306882 -50.69110559 17.48923428 -49 11.25 C-46.27254244 4.25240525 -40.40068259 0.90216247 -33.89453125 -2.23828125 C-23.99333267 -6.21917553 -9.06613416 -5.7145134 0 0 Z " fill="#85A2BE" transform="translate(313,234)"/>
<path d="M0 0 C9.054375 -0.020625 18.10875 -0.04125 27.4375 -0.0625 C30.29978271 -0.071604 33.16206543 -0.08070801 36.11108398 -0.09008789 C38.36442009 -0.09300682 40.61775673 -0.09555543 42.87109375 -0.09765625 C44.05352661 -0.10277222 45.23595947 -0.10788818 46.45422363 -0.11315918 C47.57075317 -0.11328003 48.68728271 -0.11340088 49.83764648 -0.11352539 C50.81249496 -0.115746 51.78734344 -0.11796661 52.79173279 -0.12025452 C55 0 55 0 56 1 C56.09909302 3.33160055 56.12970504 5.66629942 56.125 8 C56.12886719 9.918125 56.12886719 9.918125 56.1328125 11.875 C56 15 56 15 55 16 C52.40640678 16.08851529 49.83960309 16.11525945 47.24609375 16.09765625 C46.47064713 16.0962413 45.6952005 16.09482635 44.89625549 16.09336853 C42.40996506 16.08775345 39.9237634 16.07519846 37.4375 16.0625 C35.75586067 16.05748694 34.07421994 16.0529237 32.39257812 16.04882812 C28.26168434 16.03777913 24.13085724 16.02050445 20 16 C20 20.29 20 24.58 20 29 C20.95890137 28.98952637 21.91780273 28.97905273 22.90576172 28.96826172 C26.45780719 28.93210672 30.00983634 28.90911607 33.56201172 28.89013672 C35.10045098 28.88006882 36.63887107 28.86641354 38.17724609 28.84912109 C40.38644133 28.82490683 42.59538395 28.81352509 44.8046875 28.8046875 C45.49432587 28.79436493 46.18396423 28.78404236 46.89450073 28.77340698 C48.59800906 28.77300522 50.30085943 28.87808974 52 29 C54 31 54 31 54.265625 33.49609375 C54.26046875 34.46675781 54.2553125 35.43742187 54.25 36.4375 C54.25773437 37.88962891 54.25773437 37.88962891 54.265625 39.37109375 C54 42 54 42 52 45 C49.51659097 45.26727014 47.28527932 45.34866334 44.8046875 45.29296875 C44.09724396 45.28872391 43.38980042 45.28447906 42.66091919 45.28010559 C40.39856095 45.26329547 38.13708952 45.22564128 35.875 45.1875 C34.34246077 45.17245607 32.8099076 45.15876716 31.27734375 45.14648438 C27.51788682 45.11338462 23.75909382 45.06158825 20 45 C20 49.29 20 53.58 20 58 C21.62796509 57.99214478 21.62796509 57.99214478 23.28881836 57.98413086 C27.30117982 57.96608164 31.31353767 57.95456829 35.32592773 57.94506836 C37.06519168 57.94002796 38.80445136 57.9331957 40.54370117 57.92456055 C43.03825937 57.91248208 45.53276173 57.90676892 48.02734375 57.90234375 C48.80963852 57.89718246 49.59193329 57.89202118 50.39793396 57.88670349 C52.26567114 57.88650774 54.13329204 57.93800306 56 58 C57 59 57 59 57.1328125 62.125 C57.13023437 63.40375 57.12765625 64.6825 57.125 66 C57.12886719 67.918125 57.12886719 67.918125 57.1328125 69.875 C57 73 57 73 56 74 C54.2507128 74.09365006 52.49763746 74.11744438 50.74584961 74.11352539 C49.60901733 74.11340454 48.47218506 74.11328369 47.30090332 74.11315918 C46.09687866 74.10804321 44.892854 74.10292725 43.65234375 74.09765625 C42.55249146 74.09664917 41.45263916 74.09564209 40.31945801 74.09460449 C36.19212814 74.08935362 32.06481307 74.07539251 27.9375 74.0625 C18.718125 74.041875 9.49875 74.02125 0 74 C0 49.58 0 25.16 0 0 Z " fill="#85A2BE" transform="translate(346,231)"/>
<path d="M0 0 C0.84691406 -0.01611328 1.69382813 -0.03222656 2.56640625 -0.04882812 C11.33719263 -0.05554389 18.1984057 1.91757522 25 7.625 C25.90492187 8.36363281 26.80984375 9.10226563 27.7421875 9.86328125 C31.5238717 13.75035665 33.39756321 17.73547312 33.875 23.125 C33.99101562 24.27935547 33.99101562 24.27935547 34.109375 25.45703125 C34.11710937 26.37548828 34.11710937 26.37548828 34.125 27.3125 C33.125 28.3125 33.125 28.3125 31.17553711 28.42602539 C30.3428833 28.42078857 29.51022949 28.41555176 28.65234375 28.41015625 C27.75322266 28.40693359 26.85410156 28.40371094 25.92773438 28.40039062 C24.98220703 28.39201172 24.03667969 28.38363281 23.0625 28.375 C22.11310547 28.37048828 21.16371094 28.36597656 20.18554688 28.36132812 C17.83196935 28.3495011 15.47851523 28.33302025 13.125 28.3125 C12.83375244 27.6417041 12.54250488 26.9709082 12.24243164 26.27978516 C10.69399851 22.84176908 9.42101308 20.02470158 6.03515625 18.1640625 C2.20816771 17.15661594 -0.98907422 17.00573765 -4.75 18.3125 C-8.59746394 20.77487692 -9.30443619 22.02578465 -10.875 26.3125 C-11.30548179 30.31946299 -11.29376586 34.28604058 -11.25 38.3125 C-11.26160156 39.37984375 -11.27320312 40.4471875 -11.28515625 41.546875 C-11.25998839 48.29186081 -10.86586406 53.32163594 -5.875 58.3125 C-1.57986743 59.45500526 2.16317363 59.58471501 6.4375 58.375 C10.05509091 55.90993617 10.05509091 55.90993617 13.125 48.3125 C19.725 48.3125 26.325 48.3125 33.125 48.3125 C34.50057712 55.19038559 32.58260298 59.33898992 29.5625 65.5 C23.34419097 72.67497196 14.3206075 76.26826277 5 77.0625 C-6.07793238 77.74305557 -17.01179879 76.13098559 -25.72265625 68.74609375 C-33.25015313 60.77471499 -33.38463196 50.94765904 -33.32104492 40.51098633 C-33.31252797 38.38199222 -33.34138467 36.25568414 -33.37304688 34.12695312 C-33.42072315 24.82356843 -32.62306965 16.87096309 -26.5625 9.5 C-25.675625 8.778125 -24.78875 8.05625 -23.875 7.3125 C-23.33746094 6.87164062 -22.79992187 6.43078125 -22.24609375 5.9765625 C-15.39953247 0.6769871 -8.43092727 -0.03179083 0 0 Z " fill="#85A2BE" transform="translate(53.875,229.6875)"/>
<path d="M0 0 C1.21796265 -0.00315216 2.43592529 -0.00630432 3.6907959 -0.009552 C5.03019242 -0.00776222 6.36958862 -0.00571127 7.70898438 -0.00341797 C9.07279477 -0.00409106 10.43660505 -0.00506114 11.80041504 -0.00631714 C14.66203959 -0.00779385 17.52363297 -0.00564044 20.38525391 -0.00097656 C24.06092051 0.00472073 27.73651411 0.00144157 31.41217804 -0.00454903 C34.22935541 -0.00815538 37.04651535 -0.00701571 39.86369324 -0.00442123 C41.21933501 -0.00375217 42.57497834 -0.00457968 43.93061829 -0.00690079 C45.82223482 -0.00942848 47.71385687 -0.00489561 49.60546875 0 C51.2231012 0.00119339 51.2231012 0.00119339 52.87341309 0.00241089 C55.30273438 0.12939453 55.30273438 0.12939453 56.30273438 1.12939453 C56.40254651 3.80670833 56.44153313 6.45243628 56.42773438 9.12939453 C56.43160156 9.87962891 56.43546875 10.62986328 56.43945312 11.40283203 C56.42934491 17.002784 56.42934491 17.002784 55.30273438 18.12939453 C53.81401578 18.21608885 52.32128938 18.23642947 50.83007812 18.22705078 C49.93095703 18.22382813 49.03183594 18.22060547 48.10546875 18.21728516 C47.15994141 18.20890625 46.21441406 18.20052734 45.24023438 18.19189453 C44.29083984 18.18738281 43.34144531 18.18287109 42.36328125 18.17822266 C40.00970372 18.16639563 37.6562496 18.14991478 35.30273438 18.12939453 C35.30495499 18.81621811 35.3071756 19.50304169 35.3094635 20.2106781 C35.33151333 27.33144615 35.3466397 34.45220457 35.35766602 41.57299805 C35.3627082 44.23380934 35.36954173 46.89461785 35.37817383 49.55541992 C35.39024446 53.37044969 35.39596367 57.18544297 35.40039062 61.00048828 C35.40555191 62.19838486 35.4107132 63.39628143 35.41603088 64.63047791 C35.41610641 65.73154373 35.41618195 66.83260956 35.41625977 67.96704102 C35.41848038 68.9418895 35.42070099 69.91673798 35.42298889 70.92112732 C35.30273438 73.12939453 35.30273438 73.12939453 34.30273438 74.12939453 C27.70273437 74.12939453 21.10273438 74.12939453 14.30273438 74.12939453 C14.30273438 55.64939453 14.30273438 37.16939453 14.30273438 18.12939453 C7.70273437 18.12939453 1.10273438 18.12939453 -5.69726562 18.12939453 C-7.69726562 16.12939453 -7.69726562 16.12939453 -7.70898438 12.68798828 C-7.61185023 11.31347357 -7.50331116 9.93972834 -7.38476562 8.56689453 C-7.33642578 7.86886719 -7.28808594 7.17083984 -7.23828125 6.45166016 C-6.74790994 0.05200417 -6.2763077 0.00463027 0 0 Z " fill="#85A2BE" transform="translate(425.697265625,230.87060546875)"/>
<path d="M0 0 C0.804375 -0.00128906 1.60875 -0.00257813 2.4375 -0.00390625 C3.283125 -0.00003906 4.12875 0.00382813 5 0.0078125 C6.2684375 0.00201172 6.2684375 0.00201172 7.5625 -0.00390625 C8.366875 -0.00261719 9.17125 -0.00132812 10 0 C10.7425 0.00112793 11.485 0.00225586 12.25 0.00341797 C14 0.1328125 14 0.1328125 15 1.1328125 C15.09365006 2.8820997 15.11744438 4.63517504 15.11352539 6.38696289 C15.11344986 7.50804947 15.11337433 8.62913605 15.11329651 9.78419495 C15.10813522 11.0039653 15.10297394 12.22373566 15.09765625 13.48046875 C15.0962413 14.72203232 15.09482635 15.96359589 15.09336853 17.24278259 C15.08870591 20.54886741 15.07971497 23.85488396 15.06866455 27.16094971 C15.05844827 30.532424 15.05387045 33.90390533 15.04882812 37.27539062 C15.03777395 43.89455025 15.02101736 50.51367743 15 57.1328125 C16.53708618 57.12495728 16.53708618 57.12495728 18.10522461 57.11694336 C21.89395276 57.09889281 25.68267709 57.0873803 29.47143555 57.07788086 C31.11369464 57.07284076 32.75594923 57.06600872 34.39819336 57.05737305 C36.75375479 57.04529324 39.10925709 57.03958111 41.46484375 57.03515625 C42.20339096 57.02999496 42.94193817 57.02483368 43.7028656 57.01951599 C45.46898088 57.01932 47.23497146 57.07086531 49 57.1328125 C50.75559942 58.88841192 50.13221919 61.16863692 50.13671875 63.50390625 C50.13091797 64.55771484 50.13091797 64.55771484 50.125 65.6328125 C50.13080078 66.68662109 50.13080078 66.68662109 50.13671875 67.76171875 C50.12661378 73.00619872 50.12661378 73.00619872 49 74.1328125 C47.31198015 74.22634413 45.62004793 74.25026041 43.92944336 74.24633789 C42.84839828 74.24626236 41.76735321 74.24618683 40.65354919 74.24610901 C38.889515 74.23836708 38.889515 74.23836708 37.08984375 74.23046875 C35.89267227 74.2290538 34.69550079 74.22763885 33.46205139 74.22618103 C29.62050934 74.22056229 25.77902457 74.20800661 21.9375 74.1953125 C19.34049563 74.19029991 16.74349035 74.18573659 14.14648438 74.18164062 C7.76430321 74.17058677 1.3821557 74.15383042 -5 74.1328125 C-6.30560436 71.52160378 -6.12708537 69.6043623 -6.12939453 66.68017578 C-6.13254669 65.53783478 -6.13569885 64.39549377 -6.13894653 63.21853638 C-6.1369223 61.97595062 -6.13489807 60.73336487 -6.1328125 59.453125 C-6.13376923 58.17484833 -6.13472595 56.89657166 -6.13571167 55.57955933 C-6.13718867 52.86422526 -6.13503752 50.14892401 -6.13037109 47.43359375 C-6.12473069 43.98660156 -6.12791615 40.53968822 -6.13394356 37.09269905 C-6.13847825 33.77533515 -6.13527694 30.45799112 -6.1328125 27.140625 C-6.13483673 25.91828156 -6.13686096 24.69593811 -6.13894653 23.43655396 C-6.07603739 0.00923009 -6.07603739 0.00923009 0 0 Z " fill="#85A2BE" transform="translate(113,230.8671875)"/>
<path d="M0 0 C6.6 0 13.2 0 20 0 C20 18.81 20 37.62 20 57 C30.89 57 41.78 57 53 57 C53.66 58.32 54.32 59.64 55 61 C54.16597656 61.14695313 53.33195312 61.29390625 52.47265625 61.4453125 C44.9290935 62.94884047 38.83098386 64.83793853 33 70 C32.60844727 70.68416992 32.21689453 71.36833984 31.81347656 72.07324219 C30 74 30 74 26.92138672 74.4699707 C25.06924561 74.44809692 25.06924561 74.44809692 23.1796875 74.42578125 C22.19079025 74.42084908 22.19079025 74.42084908 21.18191528 74.41581726 C19.79158626 74.40540971 18.40130029 74.38548169 17.01123047 74.35668945 C14.87573581 74.31251522 12.74136422 74.29524118 10.60546875 74.28320312 C0.17958252 74.17958252 0.17958252 74.17958252 -1 73 C-1.0996392 70.76612794 -1.12799795 68.52906141 -1.12939453 66.29296875 C-1.13114685 65.59217194 -1.13289917 64.89137512 -1.13470459 64.16934204 C-1.13912266 61.84203651 -1.13618529 59.51480636 -1.1328125 57.1875 C-1.13348555 55.57706691 -1.13445559 53.96663391 -1.13571167 52.35620117 C-1.13718858 48.97671545 -1.13503431 45.5972561 -1.13037109 42.21777344 C-1.1246738 37.87623495 -1.12795285 33.53475827 -1.13394356 29.19322205 C-1.13754936 25.86649099 -1.1364105 22.5397747 -1.13381577 19.21304321 C-1.13314655 17.61178582 -1.13397474 16.0105271 -1.13629532 14.40927124 C-1.13882216 12.17515489 -1.13498085 9.94114 -1.12939453 7.70703125 C-1.12859894 6.4331958 -1.12780334 5.15936035 -1.12698364 3.84692383 C-1 1 -1 1 0 0 Z " fill="#151F55" transform="translate(154,169)"/>
<path d="M0 0 C3.31248187 -0.02888146 6.62493167 -0.04675799 9.9375 -0.0625 C10.88302734 -0.07087891 11.82855469 -0.07925781 12.80273438 -0.08789062 C14.15141602 -0.09272461 14.15141602 -0.09272461 15.52734375 -0.09765625 C16.77632446 -0.10551147 16.77632446 -0.10551147 18.05053711 -0.11352539 C20 0 20 0 21 1 C21.0996392 3.23387206 21.12799795 5.47093859 21.12939453 7.70703125 C21.13114685 8.40782806 21.13289917 9.10862488 21.13470459 9.83065796 C21.13912266 12.15796349 21.13618529 14.48519364 21.1328125 16.8125 C21.13348555 18.42293309 21.13445559 20.03336609 21.13571167 21.64379883 C21.13718858 25.02328455 21.13503431 28.4027439 21.13037109 31.78222656 C21.1246738 36.12376505 21.12795285 40.46524173 21.13394356 44.80677795 C21.13754936 48.13350901 21.1364105 51.4602253 21.13381577 54.78695679 C21.13314655 56.38821418 21.13397474 57.9894729 21.13629532 59.59072876 C21.13882216 61.82484511 21.13498085 64.05886 21.12939453 66.29296875 C21.12859894 67.5668042 21.12780334 68.84063965 21.12698364 70.15307617 C21 73 21 73 20 74 C17.00550029 74.3493583 14.89781514 74.58619925 12 74 C9.5 71.3125 9.5 71.3125 8.35032654 69.60371399 C6.71204084 67.65800559 5.21791884 67.14485149 2.89477539 66.15307617 C-0.0115825 64.38112646 -0.85850632 63.55393954 -1.71218872 60.21182251 C-1.9452322 56.53021894 -1.92444634 52.92583186 -1.81640625 49.23828125 C-1.80401122 47.88261015 -1.79502405 46.52690399 -1.78929138 45.17118835 C-1.76448481 41.61159988 -1.69080295 38.05460746 -1.60760498 34.49597168 C-1.54749037 31.58590379 -1.52109397 28.67599352 -1.49662876 25.76543903 C-1.44603014 19.7588931 -1.36879249 13.75272446 -1.24047852 7.74731445 C-1.20761497 6.15111015 -1.20761497 6.15111015 -1.17408752 4.5226593 C-1 2 -1 2 0 0 Z " fill="#151F55" transform="translate(227,169)"/>
</svg>
