<svg xmlns="http://www.w3.org/2000/svg" xmlns:xlink="http://www.w3.org/1999/xlink" width="500" zoomAndPan="magnify" viewBox="0 0 375 374.999991" height="500" preserveAspectRatio="xMidYMid meet" version="1.0"><defs><clipPath id="07ed22351c"><path d="M 13.945312 13.945312 L 361.054688 13.945312 L 361.054688 361.054688 L 13.945312 361.054688 Z M 13.945312 13.945312 " clip-rule="nonzero"/></clipPath><clipPath id="39727cbb9b"><path d="M 187.5 13.945312 C 91.648438 13.945312 13.945312 91.648438 13.945312 187.5 C 13.945312 283.351562 91.648438 361.054688 187.5 361.054688 C 283.351562 361.054688 361.054688 283.351562 361.054688 187.5 C 361.054688 91.648438 283.351562 13.945312 187.5 13.945312 Z M 187.5 13.945312 " clip-rule="nonzero"/></clipPath><clipPath id="04882abbd3"><path d="M 122 107.875 L 337 107.875 L 337 233 L 122 233 Z M 122 107.875 " clip-rule="nonzero"/></clipPath><clipPath id="1cc9426e9c"><path d="M 44 224 L 174 224 L 174 266.875 L 44 266.875 Z M 44 224 " clip-rule="nonzero"/></clipPath></defs><g clip-path="url(#07ed22351c)"><g clip-path="url(#39727cbb9b)"><path fill="#f4f6fc" d="M 13.945312 13.945312 L 361.054688 13.945312 L 361.054688 361.054688 L 13.945312 361.054688 Z M 13.945312 13.945312 " fill-opacity="1" fill-rule="nonzero"/></g></g><g clip-path="url(#04882abbd3)"><path fill="#86a3bf" d="M 200.988281 107.957031 C 199.421875 107.957031 197.863281 108.035156 196.304688 108.1875 C 194.75 108.34375 193.203125 108.570312 191.671875 108.875 C 190.136719 109.183594 188.621094 109.5625 187.125 110.015625 C 185.628906 110.46875 184.15625 110.996094 182.710938 111.59375 C 181.265625 112.191406 179.855469 112.859375 178.476562 113.597656 C 177.09375 114.335938 175.753906 115.136719 174.453125 116.007812 C 173.15625 116.875 171.898438 117.808594 170.691406 118.800781 C 169.480469 119.792969 168.324219 120.839844 167.21875 121.945312 C 166.113281 123.054688 165.0625 124.210938 164.070312 125.417969 C 163.078125 126.628906 162.148438 127.882812 161.277344 129.183594 C 160.410156 130.484375 159.605469 131.824219 158.871094 133.203125 C 158.132812 134.582031 157.464844 135.996094 156.867188 137.441406 C 156.265625 138.886719 155.742188 140.355469 155.285156 141.851562 C 154.832031 143.347656 154.453125 144.863281 154.148438 146.398438 C 153.84375 147.933594 153.613281 149.476562 153.460938 151.035156 C 153.308594 152.589844 153.230469 154.152344 153.230469 155.714844 C 153.242188 157.484375 153.347656 159.246094 153.554688 161 C 135.542969 164.234375 122.03125 178.785156 122.03125 196.347656 C 122.03125 216.300781 139.472656 232.367188 161.136719 232.367188 L 300.675781 232.367188 C 320.628906 232.367188 336.695312 217.433594 336.695312 198.886719 C 336.695312 180.453125 320.828125 165.601562 301.046875 165.414062 C 300.890625 164.179688 300.679688 162.953125 300.410156 161.738281 C 300.144531 160.519531 299.824219 159.320312 299.445312 158.132812 C 299.070312 156.945312 298.640625 155.777344 298.160156 154.625 C 297.679688 153.476562 297.144531 152.351562 296.5625 151.253906 C 295.980469 150.152344 295.347656 149.078125 294.667969 148.035156 C 293.988281 146.992188 293.261719 145.980469 292.492188 145.003906 C 291.71875 144.027344 290.90625 143.085938 290.050781 142.179688 C 289.191406 141.277344 288.296875 140.410156 287.363281 139.589844 C 286.429688 138.765625 285.457031 137.984375 284.453125 137.25 C 283.449219 136.511719 282.414062 135.824219 281.34375 135.179688 C 280.277344 134.539062 279.183594 133.945312 278.0625 133.402344 C 276.941406 132.859375 275.800781 132.367188 274.632812 131.925781 C 273.46875 131.488281 272.285156 131.101562 271.085938 130.765625 C 269.886719 130.433594 268.671875 130.15625 267.449219 129.929688 C 266.222656 129.707031 264.988281 129.539062 263.75 129.425781 C 262.507812 129.316406 261.265625 129.257812 260.019531 129.257812 C 254.070312 129.265625 248.390625 130.503906 242.972656 132.960938 C 241.953125 131.082031 240.8125 129.273438 239.550781 127.546875 C 238.285156 125.816406 236.914062 124.183594 235.429688 122.636719 C 233.949219 121.09375 232.371094 119.65625 230.695312 118.324219 C 229.015625 116.992188 227.261719 115.777344 225.421875 114.683594 C 223.582031 113.589844 221.675781 112.621094 219.707031 111.78125 C 217.738281 110.941406 215.722656 110.238281 213.65625 109.671875 C 211.59375 109.101562 209.5 108.675781 207.378906 108.390625 C 205.257812 108.101562 203.128906 107.957031 200.988281 107.957031 Z M 200.988281 107.957031 " fill-opacity="1" fill-rule="nonzero"/></g><path fill="#c6e0f7" d="M 149.070312 125.929688 C 147.503906 125.929688 145.945312 126.007812 144.386719 126.160156 C 142.832031 126.3125 141.285156 126.542969 139.75 126.847656 C 138.21875 127.152344 136.703125 127.53125 135.207031 127.988281 C 133.707031 128.441406 132.238281 128.96875 130.792969 129.566406 C 129.347656 130.164062 127.933594 130.832031 126.554688 131.570312 C 125.175781 132.308594 123.835938 133.109375 122.535156 133.980469 C 121.234375 134.847656 119.980469 135.777344 118.773438 136.769531 C 117.5625 137.761719 116.40625 138.8125 115.300781 139.917969 C 114.195312 141.023438 113.144531 142.183594 112.152344 143.390625 C 111.160156 144.601562 110.230469 145.855469 109.359375 147.15625 C 108.492188 148.457031 107.6875 149.796875 106.949219 151.175781 C 106.214844 152.554688 105.546875 153.96875 104.945312 155.410156 C 104.347656 156.855469 103.820312 158.328125 103.367188 159.824219 C 102.914062 161.320312 102.535156 162.835938 102.230469 164.371094 C 101.925781 165.90625 101.695312 167.449219 101.542969 169.007812 C 101.386719 170.5625 101.3125 172.125 101.3125 173.6875 C 101.324219 175.457031 101.429688 177.21875 101.636719 178.972656 C 83.625 182.207031 70.113281 196.753906 70.113281 214.320312 C 70.113281 234.273438 87.554688 250.335938 109.21875 250.335938 L 248.757812 250.335938 C 268.710938 250.335938 284.777344 235.40625 284.777344 216.859375 C 284.777344 198.425781 268.910156 183.574219 249.128906 183.386719 C 248.972656 182.152344 248.761719 180.925781 248.492188 179.710938 C 248.226562 178.492188 247.902344 177.289062 247.527344 176.101562 C 247.152344 174.914062 246.722656 173.746094 246.242188 172.597656 C 245.761719 171.449219 245.226562 170.324219 244.644531 169.222656 C 244.0625 168.125 243.429688 167.050781 242.75 166.007812 C 242.070312 164.964844 241.34375 163.953125 240.574219 162.976562 C 239.800781 161.996094 238.988281 161.054688 238.128906 160.152344 C 237.273438 159.246094 236.378906 158.382812 235.445312 157.558594 C 234.511719 156.734375 233.539062 155.957031 232.535156 155.21875 C 231.53125 154.484375 230.496094 153.796875 229.425781 153.152344 C 228.359375 152.511719 227.265625 151.917969 226.144531 151.375 C 225.023438 150.832031 223.882812 150.339844 222.714844 149.898438 C 221.550781 149.457031 220.367188 149.070312 219.167969 148.738281 C 217.96875 148.40625 216.753906 148.125 215.53125 147.902344 C 214.304688 147.679688 213.070312 147.511719 211.832031 147.398438 C 210.589844 147.285156 209.347656 147.230469 208.101562 147.230469 C 202.152344 147.238281 196.472656 148.472656 191.054688 150.933594 C 190.035156 149.050781 188.894531 147.246094 187.632812 145.519531 C 186.367188 143.789062 184.996094 142.152344 183.511719 140.609375 C 182.03125 139.066406 180.449219 137.628906 178.773438 136.296875 C 177.097656 134.964844 175.339844 133.75 173.503906 132.65625 C 171.664062 131.558594 169.757812 130.59375 167.789062 129.753906 C 165.820312 128.914062 163.804688 128.210938 161.738281 127.644531 C 159.675781 127.074219 157.582031 126.648438 155.460938 126.359375 C 153.339844 126.074219 151.210938 125.929688 149.070312 125.929688 Z M 149.070312 125.929688 " fill-opacity="1" fill-rule="nonzero"/><path fill="#151f55" d="M 135.878906 158.289062 C 123.441406 158.289062 113.25 168.375 113.25 180.753906 C 113.25 181.25 113.347656 181.730469 113.535156 182.1875 C 113.726562 182.644531 113.996094 183.050781 114.347656 183.402344 C 114.699219 183.753906 115.105469 184.023438 115.5625 184.214844 C 116.019531 184.402344 116.5 184.5 116.996094 184.5 C 117.492188 184.5 117.96875 184.402344 118.429688 184.214844 C 118.886719 184.023438 119.292969 183.753906 119.644531 183.402344 C 119.992188 183.050781 120.265625 182.644531 120.453125 182.1875 C 120.644531 181.730469 120.738281 181.25 120.738281 180.753906 C 120.738281 172.457031 127.457031 165.777344 135.878906 165.777344 C 144.300781 165.777344 151.015625 172.457031 151.015625 180.753906 C 151.015625 189.050781 144.300781 195.730469 135.878906 195.730469 L 37.136719 195.730469 C 36.640625 195.730469 36.164062 195.824219 35.703125 196.015625 C 35.246094 196.207031 34.839844 196.476562 34.492188 196.828125 C 34.140625 197.179688 33.867188 197.582031 33.679688 198.042969 C 33.488281 198.5 33.394531 198.980469 33.394531 199.476562 C 33.394531 199.972656 33.488281 200.449219 33.679688 200.90625 C 33.867188 201.367188 34.140625 201.773438 34.492188 202.121094 C 34.839844 202.472656 35.246094 202.746094 35.703125 202.933594 C 36.164062 203.125 36.640625 203.21875 37.136719 203.21875 L 135.878906 203.21875 C 148.3125 203.21875 158.503906 193.132812 158.503906 180.753906 C 158.503906 168.375 148.3125 158.289062 135.878906 158.289062 Z M 135.878906 158.289062 " fill-opacity="1" fill-rule="nonzero"/><path fill="#151f55" d="M 181.832031 180.253906 C 171.234375 180.253906 162.394531 188.582031 162.394531 198.972656 C 162.394531 199.46875 162.488281 199.949219 162.675781 200.40625 C 162.867188 200.867188 163.136719 201.269531 163.488281 201.621094 C 163.839844 201.972656 164.246094 202.242188 164.703125 202.433594 C 165.164062 202.625 165.640625 202.71875 166.136719 202.71875 C 166.632812 202.71875 167.109375 202.621094 167.570312 202.433594 C 168.027344 202.242188 168.433594 201.972656 168.785156 201.621094 C 169.136719 201.269531 169.40625 200.867188 169.597656 200.40625 C 169.785156 199.949219 169.882812 199.46875 169.882812 198.972656 C 169.882812 192.824219 175.09375 187.742188 181.832031 187.742188 C 188.570312 187.742188 193.78125 192.824219 193.78125 198.972656 C 193.78125 205.125 188.570312 210.207031 181.832031 210.207031 L 57.109375 210.207031 C 56.609375 210.207031 56.132812 210.300781 55.675781 210.492188 C 55.214844 210.679688 54.8125 210.953125 54.460938 211.304688 C 54.109375 211.652344 53.839844 212.058594 53.648438 212.519531 C 53.457031 212.976562 53.363281 213.453125 53.363281 213.949219 C 53.363281 214.445312 53.457031 214.925781 53.648438 215.382812 C 53.839844 215.84375 54.109375 216.246094 54.460938 216.597656 C 54.8125 216.949219 55.214844 217.21875 55.675781 217.410156 C 56.132812 217.597656 56.609375 217.695312 57.109375 217.695312 L 181.832031 217.695312 C 192.429688 217.695312 201.269531 209.367188 201.269531 198.972656 C 201.269531 188.582031 192.429688 180.253906 181.832031 180.253906 Z M 181.832031 180.253906 " fill-opacity="1" fill-rule="nonzero"/><g clip-path="url(#1cc9426e9c)"><path fill="#151f55" d="M 48.121094 224.683594 C 47.625 224.683594 47.144531 224.78125 46.6875 224.96875 C 46.226562 225.160156 45.824219 225.429688 45.472656 225.78125 C 45.121094 226.132812 44.851562 226.539062 44.660156 226.996094 C 44.46875 227.457031 44.375 227.933594 44.375 228.429688 C 44.375 228.925781 44.46875 229.402344 44.660156 229.863281 C 44.851562 230.320312 45.121094 230.726562 45.472656 231.078125 C 45.824219 231.429688 46.226562 231.699219 46.6875 231.886719 C 47.144531 232.078125 47.625 232.171875 48.121094 232.171875 L 152.046875 232.171875 C 159.9375 232.171875 166.183594 238.34375 166.183594 245.96875 C 166.183594 253.59375 159.9375 259.765625 152.046875 259.765625 C 144.15625 259.765625 137.914062 253.59375 137.914062 245.96875 C 137.914062 245.46875 137.816406 244.992188 137.628906 244.535156 C 137.4375 244.074219 137.167969 243.671875 136.816406 243.320312 C 136.464844 242.96875 136.058594 242.699219 135.601562 242.507812 C 135.140625 242.316406 134.664062 242.222656 134.167969 242.222656 C 133.671875 242.222656 133.195312 242.316406 132.734375 242.507812 C 132.277344 242.699219 131.871094 242.96875 131.519531 243.320312 C 131.167969 243.671875 130.898438 244.074219 130.707031 244.535156 C 130.519531 244.992188 130.425781 245.46875 130.425781 245.96875 C 130.425781 257.71875 140.1875 267.253906 152.046875 267.253906 C 163.910156 267.253906 173.671875 257.71875 173.671875 245.96875 C 173.671875 234.21875 163.910156 224.683594 152.046875 224.683594 Z M 48.121094 224.683594 " fill-opacity="1" fill-rule="nonzero"/></g></svg>