<?xml version="1.0" encoding="UTF-8"?>
<svg version="1.1" xmlns="http://www.w3.org/2000/svg" width="378" height="355">
<path d="M0 0 C124.74 0 249.48 0 378 0 C378 117.15 378 234.3 378 355 C253.26 355 128.52 355 0 355 C0 237.85 0 120.7 0 0 Z " fill="#FEFEFE" transform="translate(0,0)"/>
<path d="M0 0 C16.83 0 33.66 0 51 0 C51 1.98 51 3.96 51 6 C50.24074219 6.10957031 49.48148438 6.21914062 48.69921875 6.33203125 C47.70535156 6.49058594 46.71148437 6.64914063 45.6875 6.8125 C44.70136719 6.96332031 43.71523437 7.11414063 42.69921875 7.26953125 C39.80086638 8.05389 38.9690868 8.84891801 37 11 C45.78417147 27.46112784 54.73892538 43.80126767 64 60 C69.54277795 50.36906359 74.96592496 40.67855474 80.3125 30.9375 C81.3685185 29.01409827 82.42490368 27.09090266 83.48246765 25.16835022 C84.42845541 23.4486034 85.37308708 21.72811083 86.31762695 20.00756836 C87.40885852 18.05678013 88.54098815 16.128105 89.71948242 14.22875977 C91.16605769 12.13937864 91.16605769 12.13937864 91 10 C85.91059256 7.94637945 81.45479185 6.56820748 76 6 C76 4.02 76 2.04 76 0 C90.19 0 104.38 0 119 0 C119.495 2.475 119.495 2.475 120 5 C118.18031475 6.81968525 115.18997602 6.70917787 112.71484375 7.109375 C103.25281066 10.21346643 99.59385468 16.02527591 95 24.5625 C94.03765238 26.29023648 93.0752728 28.01795576 92.1113739 29.74482727 C91.09878443 31.56512292 90.09495557 33.39004497 89.09228516 35.21582031 C85.88363976 41.04149166 82.56389127 46.8040435 79.25512695 52.57321167 C78.2015095 54.41303664 77.15185508 56.25506371 76.10351562 58.09790039 C75.14541992 59.7800061 75.14541992 59.7800061 74.16796875 61.49609375 C73.60360107 62.48794678 73.0392334 63.4797998 72.45776367 64.50170898 C71.36661445 66.37170228 70.20095879 68.19856182 69 70 C68.76792634 72.77046025 68.64801601 75.43799484 68.62890625 78.2109375 C68.61987778 79.01608795 68.6108493 79.8212384 68.60154724 80.65078735 C68.58704519 82.35374229 68.57815811 84.05675295 68.57446289 85.75976562 C68.56257304 88.35903342 68.51339755 90.95592128 68.46289062 93.5546875 C68.4534252 95.21092594 68.44619074 96.86717893 68.44140625 98.5234375 C68.42187393 99.29754974 68.40234161 100.07166199 68.38221741 100.86923218 C68.41579087 104.90566935 68.79237779 106.74340563 71.36303711 109.92041016 C77.03901249 114.39665849 81.951818 115.54578383 89 116 C89 117.32 89 118.64 89 120 C69.53 120 50.06 120 30 120 C30 118.68 30 117.36 30 116 C31.10859375 115.81824219 32.2171875 115.63648438 33.359375 115.44921875 C34.82301777 115.19589596 36.28655404 114.9419573 37.75 114.6875 C38.47960937 114.56955078 39.20921875 114.45160156 39.9609375 114.33007812 C41.02441406 114.14155273 41.02441406 114.14155273 42.109375 113.94921875 C42.75874023 113.83924561 43.40810547 113.72927246 44.07714844 113.6159668 C46.7149504 112.77097259 48.08205753 112.04337916 50 110 C50.54514877 107.24945045 50.81809989 104.89840848 50.91796875 102.125 C50.95386612 101.33660736 50.98976349 100.54821472 51.02674866 99.7359314 C51.11919379 97.15651823 51.16263939 94.58092381 51.1875 92 C51.19769165 91.12063782 51.2078833 90.24127563 51.21838379 89.33526611 C51.25222866 72.05195201 46.91362473 61.23418612 37.01855469 46.98095703 C33.82581002 42.26598214 31.12757618 37.29238525 28.375 32.3125 C25.35484101 26.98541847 22.25764068 21.74340767 18.90478516 16.61791992 C18 15 18 15 18 13 C17.4225 12.731875 16.845 12.46375 16.25 12.1875 C14 11 14 11 12.1875 9.5 C9.67108015 7.77445496 7.74223315 7.32432936 4.75 6.8125 C3.85796875 6.65394531 2.9659375 6.49539062 2.046875 6.33203125 C1.37140625 6.22246094 0.6959375 6.11289063 0 6 C0 4.02 0 2.04 0 0 Z " fill="#083B6F" transform="translate(36,119)"/>
<path d="M0 0 C4.29897391 3.20315703 6.50099116 6.31547348 8.1875 11.375 C8.29313178 13.08683162 8.34340669 14.80233746 8.36108398 16.51733398 C8.37457382 17.56529648 8.38806366 18.61325897 8.40196228 19.69297791 C8.41240067 20.82425613 8.42283905 21.95553436 8.43359375 23.12109375 C8.46652525 25.5084673 8.49973701 27.89583701 8.53320312 30.28320312 C8.58067235 34.05344043 8.62511602 37.82366133 8.66430664 41.59399414 C8.70396625 45.22819171 8.75551925 48.86207085 8.80859375 52.49609375 C8.8170079 53.62534775 8.82542206 54.75460175 8.83409119 55.91807556 C8.85905418 57.49474754 8.85905418 57.49474754 8.88452148 59.10327148 C8.89482895 60.02687973 8.90513641 60.95048798 8.91575623 61.90208435 C9.20701813 64.5526184 9.68798295 66.1732489 11.1875 68.375 C14.52115631 69.42085296 16.90366983 69.90992924 20.203125 68.53515625 C21.9113882 67.55950186 23.55579188 66.47390547 25.1875 65.375 C25.67293689 70.71480583 25.67293689 70.71480583 23.625 73.5 C17.58797107 78.14386841 12.09233882 80.8241271 4.3515625 80.72265625 C0.3390995 80.07805479 -2.80151779 78.04022349 -5.8125 75.375 C-7.3125 72.5625 -7.3125 72.5625 -7.8125 70.375 C-8.451875 71.1175 -9.09125 71.86 -9.75 72.625 C-15.84575647 78.60189771 -23.40303299 80.11913269 -31.71484375 80.546875 C-37.6706757 80.2164127 -41.84240827 77.70911161 -45.8125 73.375 C-49.21204615 67.4705251 -48.5475621 59.88747597 -46.8984375 53.48828125 C-44.95959252 48.85256934 -42.48311127 47.32880797 -38.05514526 45.43177795 C-34.0956631 43.91494316 -30.09154878 42.56856911 -26.0625 41.25 C-24.39331814 40.67276692 -22.72532995 40.09206978 -21.05859375 39.5078125 C-16.98927251 38.08977203 -12.90651526 36.71999509 -8.8125 35.375 C-8.72452719 32.18767746 -8.67178659 29.00067212 -8.625 25.8125 C-8.59986328 24.91724609 -8.57472656 24.02199219 -8.54882812 23.09960938 C-8.48611434 17.39265497 -9.00070609 13.38618306 -11.8125 8.375 C-14.86829659 6.24922846 -16.70981076 5.34874549 -20.4375 5.4375 C-23.40183864 6.60763367 -24.74550932 7.94978584 -26.8125 10.375 C-27.92144997 13.16152118 -27.92144997 13.16152118 -28.5625 16.125 C-28.975 17.8575 -29.3875 19.59 -29.8125 21.375 C-35.0925 22.035 -40.3725 22.695 -45.8125 23.375 C-44.23105305 13.88631831 -38.45892579 7.9890115 -30.8125 2.375 C-22.69139191 -3.2434809 -9.04787048 -4.04773153 0 0 Z " fill="#083A6F" transform="translate(186.8125,160.625)"/>
<path d="M0 0 C0.76441406 -0.01611328 1.52882813 -0.03222656 2.31640625 -0.04882812 C10.02289587 -0.05537014 16.50585514 1.81269981 22.125 7.3125 C23.92578125 9.94140625 23.92578125 9.94140625 25.4375 12.875 C25.94925781 13.82503906 26.46101563 14.77507812 26.98828125 15.75390625 C28.125 19.3125 28.125 19.3125 28.125 30.3125 C11.955 30.3125 -4.215 30.3125 -20.875 30.3125 C-20.47386595 49.35381717 -20.47386595 49.35381717 -11.5234375 64.87890625 C-5.36158413 70.23767446 0.90864726 71.71649789 8.90625 71.66796875 C14.50282247 71.04990067 19.79518375 68.68658829 23.76953125 64.63671875 C24.21683594 64.19972656 24.66414063 63.76273438 25.125 63.3125 C27.25 63.4375 27.25 63.4375 29.125 64.3125 C29.455 65.3025 29.785 66.2925 30.125 67.3125 C20.76493644 76.44210745 10.67853328 82.298421 -2.75 82.75 C-11.67820181 82.13661209 -21.08051235 80.57898479 -27.4375 73.875 C-34.8863262 64.81198121 -38.05391596 55.59618716 -38.125 44.125 C-38.145625 43.31224609 -38.16625 42.49949219 -38.1875 41.66210938 C-38.260292 30.22466687 -33.3557658 18.35531942 -25.609375 9.91015625 C-17.91124297 2.81885895 -10.34724081 -0.04318548 0 0 Z " fill="#07396E" transform="translate(301.875,158.6875)"/>
<path d="M0 0 C0.25 2.1875 0.25 2.1875 0 5 C-0.65579041 5.65924973 -1.31158081 6.31849945 -1.98724365 6.99772644 C-4.99611004 11.4858206 -4.52797623 15.56140627 -4.45410156 20.84887695 C-4.45497772 22.48857201 -4.45497772 22.48857201 -4.45587158 24.16139221 C-4.45308727 27.77067943 -4.42197731 31.37913848 -4.390625 34.98828125 C-4.38316389 37.49219817 -4.37747034 39.99612093 -4.37347412 42.50004578 C-4.35976775 48.41447962 -4.32824988 54.32864822 -4.28807616 60.24294585 C-4.23893015 67.63912462 -4.21748574 75.03534032 -4.1953125 82.43164062 C-4.15242397 95.62124438 -4.0849298 108.8106034 -4 122 C-2.90558594 122.64453125 -1.81117188 123.2890625 -0.68359375 123.953125 C0.23981812 124.49694824 0.23981812 124.49694824 1.18188477 125.05175781 C3.40819532 126.21289521 5.51547222 126.69884512 8 127 C8 127.99 8 128.98 8 130 C-5.53 130 -19.06 130 -33 130 C-33 129.01 -33 128.02 -33 127 C-32.28972656 126.79503906 -31.57945312 126.59007812 -30.84765625 126.37890625 C-29.92855469 126.10949219 -29.00945312 125.84007812 -28.0625 125.5625 C-27.14597656 125.29566406 -26.22945312 125.02882813 -25.28515625 124.75390625 C-23.0597507 124.20973949 -23.0597507 124.20973949 -22 123 C-21.9045307 121.59588683 -21.87811471 120.18700191 -21.87974548 118.77964783 C-21.87837082 117.86954453 -21.87699615 116.95944122 -21.87557983 116.02175903 C-21.88097275 114.51233231 -21.88097275 114.51233231 -21.88647461 112.97241211 C-21.88632858 111.91888046 -21.88618256 110.86534882 -21.8860321 109.77989197 C-21.88673174 106.279022 -21.89452652 102.77820448 -21.90234375 99.27734375 C-21.90420775 96.85738657 -21.90563174 94.43742901 -21.90663147 92.01747131 C-21.91045808 85.63384976 -21.92028959 79.25025079 -21.93133545 72.86663818 C-21.94154649 66.35836086 -21.94612843 59.8500799 -21.95117188 53.34179688 C-21.96191173 40.56118797 -21.97898986 27.78059586 -22 15 C-27.94 14.01 -27.94 14.01 -34 13 C-34 11.35 -34 9.7 -34 8 C-33.41621582 7.86424561 -32.83243164 7.72849121 -32.23095703 7.58862305 C-29.52820335 6.95815839 -26.82660892 6.32285142 -24.125 5.6875 C-23.2071875 5.47416016 -22.289375 5.26082031 -21.34375 5.04101562 C-15.85198252 3.74542259 -10.46333787 2.28447785 -5.08935547 0.56176758 C-3 0 -3 0 0 0 Z " fill="#083A6F" transform="translate(246,109)"/>
<path d="M0 0 C1.32 0 2.64 0 4 0 C4.17421117 4.08279501 4.28082588 8.16463681 4.375 12.25 C4.45041016 13.98830078 4.45041016 13.98830078 4.52734375 15.76171875 C4.58255953 18.945829 4.56754068 21.86534099 4 25 C0.11591 28.74499035 -3.56475464 29.83795617 -8.875 30.4375 C-12.25646168 30.33767825 -13.04403368 29.96972685 -16 27.9375 C-19.71835089 22.82632201 -18.34449555 15.01718898 -18 9 C-17.49025635 8.76289307 -16.9805127 8.52578613 -16.45532227 8.28149414 C-14.15665983 7.21074407 -11.85956706 6.13666805 -9.5625 5.0625 C-8.76005859 4.68931641 -7.95761719 4.31613281 -7.13085938 3.93164062 C-6.36708984 3.57392578 -5.60332031 3.21621094 -4.81640625 2.84765625 C-4.10943604 2.51773682 -3.40246582 2.18781738 -2.67407227 1.84790039 C-1.0108841 1.11465443 -1.0108841 1.11465443 0 0 Z " fill="#FCFDFD" transform="translate(175,202)"/>
<path d="M0 0 C2.16403635 1.37427463 3.20292514 2.61213122 4.58203125 4.765625 C4.99839844 5.38566406 5.41476562 6.00570312 5.84375 6.64453125 C6.89453125 9.203125 6.89453125 9.203125 7.89453125 18.203125 C-2.66546875 18.203125 -13.22546875 18.203125 -24.10546875 18.203125 C-23.07286549 10.97490217 -21.68955626 7.59427017 -17.10546875 2.203125 C-12.1683322 -1.4174418 -5.77312429 -2.18500437 0 0 Z " fill="#F8F9FB" transform="translate(306.10546875,165.796875)"/>
</svg>
